<?xml version="1.0" standalone="no"?>
<!DOCTYPE svg PUBLIC "-//W3C//DTD SVG 20010904//EN"
 "http://www.w3.org/TR/2001/REC-SVG-20010904/DTD/svg10.dtd">
<svg version="1.0" xmlns="http://www.w3.org/2000/svg"
 width="800.000000pt" height="800.000000pt" viewBox="0 0 800.000000 800.000000"
 preserveAspectRatio="xMidYMid meet">
<metadata>
Created by potrace 1.14, written by Peter Selinger 2001-2017
</metadata>
<g transform="translate(0.000000,800.000000) scale(0.100000,-0.100000)"
fill="#030403" stroke="none">
<path d="M0 4000 l0 -4000 4000 0 4000 0 0 4000 0 4000 -4000 0 -4000 0 0
-4000z m3280 1713 c77 -38 245 -175 284 -231 55 -80 56 -94 56 -611 0 -441 -2
-479 -19 -517 -20 -45 -57 -78 -202 -186 -74 -55 -94 -75 -81 -79 9 -4 105
-30 212 -60 l195 -53 128 -104 c70 -57 135 -118 145 -135 15 -29 17 -81 20
-546 2 -342 -1 -532 -8 -567 -6 -29 -26 -73 -44 -98 -43 -61 -226 -212 -296
-245 l-55 -26 -992 -3 -993 -2 0 1152 0 1153 -168 46 -167 45 -3 552 -2 552
963 -2 962 -3 65 -32z m2490 5 c85 -43 627 -501 665 -562 l30 -49 5 -946 5
-945 168 -45 167 -46 0 -105 c0 -118 -13 -159 -71 -222 -69 -75 -583 -491
-638 -517 l-56 -26 -962 -3 -963 -2 0 809 0 809 -117 32 c-65 17 -142 38 -170
46 l-53 15 0 895 0 894 968 -2 967 -3 55 -27z"/>
<path d="M1710 4966 c0 -405 1 -435 18 -440 9 -2 86 -24 170 -47 l152 -42 0
-118 0 -119 428 0 c493 0 427 -13 595 122 65 53 104 93 113 115 12 28 14 107
12 443 -3 468 2 440 -98 493 l-52 27 -669 0 -669 0 0 -434z"/>
<path d="M2050 3225 l0 -625 708 0 708 0 45 28 c91 59 84 15 87 524 2 395 1
454 -13 474 -21 32 -200 181 -247 205 -35 18 -67 19 -663 19 l-625 0 0 -625z"/>
<path d="M4200 4622 l0 -779 103 -27 c56 -15 132 -36 170 -47 l67 -20 0 -575
0 -575 668 3 667 3 55 27 c81 41 387 301 425 362 28 46 30 55 30 149 l0 100
-167 46 -168 45 0 798 c0 536 -3 806 -11 825 -5 15 -20 43 -32 61 -30 46 -356
317 -420 350 l-52 27 -667 3 -668 3 0 -779z"/>
</g>
</svg>
