<svg width="300" height="200" viewBox="0 0 300 200" fill="none" xmlns="http://www.w3.org/2000/svg">
<rect width="300" height="200" fill="#3A001E"/>
<rect width="300" height="200" fill="url(#paint0_linear_132_877)"/>
<path d="M142.985 94.2541V84.2788H159.991V44.4121H170V94.2541H142.985Z" fill="#FFF5EB"/>
<path d="M140.009 81.3128H157.015V74.3382H140.009V64.3628C140.009 62.9957 140.276 61.7097 140.811 60.5048C141.322 59.2767 142.031 58.2108 142.938 57.3071C143.845 56.4034 144.914 55.6967 146.146 55.1869C147.355 54.6539 148.646 54.3875 150.017 54.3875C151.389 54.3875 152.691 54.6539 153.923 55.1869C155.096 55.6815 156.127 56.3615 157.015 57.2269V45.6502C154.812 44.8248 152.479 44.4121 150.017 44.4121C147.251 44.4121 144.659 44.9335 142.241 45.9762C139.799 47.0189 137.672 48.444 135.859 50.2513C134.045 52.0587 132.616 54.1789 131.569 56.6119C130.523 59.0218 130 61.6054 130 64.3628V94.2541H140.009L140.009 81.3128Z" fill="#FFF5EB"/>
<path d="M172.163 138.444C171.753 138.444 171.384 138.366 171.055 138.211C170.735 138.047 170.481 137.827 170.292 137.549C170.104 137.271 170.009 136.96 170.009 136.616C170.009 136.183 170.12 135.839 170.342 135.586C170.571 135.332 170.945 135.153 171.462 135.046C171.987 134.932 172.701 134.875 173.603 134.875H173.997V134.494C173.997 133.987 173.89 133.623 173.677 133.403C173.472 133.174 173.14 133.059 172.68 133.059C172.319 133.059 171.97 133.112 171.634 133.219C171.297 133.317 170.953 133.48 170.6 133.709L170.255 132.985C170.567 132.765 170.945 132.589 171.388 132.458C171.839 132.327 172.27 132.262 172.68 132.262C173.451 132.262 174.022 132.45 174.391 132.826C174.768 133.202 174.957 133.787 174.957 134.58V138.334H174.022V137.303C173.866 137.655 173.624 137.933 173.295 138.137C172.975 138.342 172.598 138.444 172.163 138.444ZM172.323 137.696C172.815 137.696 173.217 137.528 173.529 137.193C173.841 136.849 173.997 136.416 173.997 135.893V135.525H173.615C172.951 135.525 172.426 135.557 172.04 135.623C171.663 135.68 171.396 135.786 171.24 135.942C171.092 136.089 171.019 136.293 171.019 136.555C171.019 136.89 171.133 137.164 171.363 137.377C171.601 137.59 171.921 137.696 172.323 137.696Z" fill="#FFF5EB"/>
<path d="M165.929 138.333V132.372H166.902V133.439C167.222 132.719 167.878 132.323 168.871 132.249L169.228 132.212L169.302 133.071L168.674 133.145C168.108 133.194 167.677 133.374 167.382 133.684C167.086 133.987 166.938 134.404 166.938 134.936V138.333H165.929Z" fill="#FFF5EB"/>
<path d="M161.147 138.444C159.711 138.444 158.993 137.655 158.993 136.076V132.372H159.99V136.064C159.99 136.596 160.097 136.988 160.31 137.242C160.532 137.495 160.876 137.622 161.344 137.622C161.853 137.622 162.267 137.454 162.587 137.119C162.907 136.776 163.067 136.322 163.067 135.758V132.372H164.064V138.334H163.092V137.328C162.903 137.687 162.636 137.966 162.292 138.162C161.955 138.35 161.574 138.444 161.147 138.444ZM161.196 131.562L162.464 129.084H163.535L161.91 131.562H161.196Z" fill="#FFF5EB"/>
<path d="M157.127 138.444C156.422 138.444 155.893 138.26 155.54 137.892C155.187 137.516 155.011 136.976 155.011 136.273V133.145H153.841V132.372H155.011V130.544H156.007V132.372H157.903V133.145H156.007V136.175C156.007 136.641 156.106 136.997 156.303 137.242C156.5 137.479 156.82 137.598 157.263 137.598C157.394 137.598 157.525 137.581 157.657 137.549C157.788 137.516 157.907 137.483 158.014 137.451L158.186 138.211C158.079 138.268 157.923 138.322 157.718 138.371C157.513 138.42 157.316 138.444 157.127 138.444Z" fill="#FFF5EB"/>
<path d="M147.732 138.334V132.372H148.704V133.39C148.901 133.014 149.18 132.732 149.541 132.544C149.902 132.356 150.308 132.262 150.76 132.262C152.179 132.262 152.889 133.047 152.889 134.617V138.334H151.892V134.678C151.892 134.122 151.781 133.717 151.56 133.464C151.346 133.202 151.002 133.071 150.526 133.071C149.976 133.071 149.537 133.243 149.209 133.587C148.889 133.922 148.729 134.372 148.729 134.936V138.334H147.732Z" fill="#FFF5EB"/>
<path d="M143.877 138.444C142.934 138.444 142.187 138.17 141.637 137.622C141.087 137.066 140.812 136.314 140.812 135.365C140.812 134.752 140.936 134.212 141.182 133.746C141.428 133.272 141.764 132.908 142.191 132.654C142.626 132.393 143.126 132.262 143.692 132.262C144.505 132.262 145.141 132.523 145.6 133.047C146.06 133.562 146.289 134.273 146.289 135.181V135.561H141.785C141.818 136.24 142.015 136.759 142.376 137.119C142.737 137.471 143.237 137.647 143.877 137.647C144.238 137.647 144.583 137.594 144.911 137.487C145.239 137.373 145.551 137.189 145.846 136.935L146.191 137.635C145.92 137.888 145.576 138.088 145.157 138.236C144.739 138.375 144.312 138.444 143.877 138.444ZM143.717 132.998C143.151 132.998 142.704 133.174 142.376 133.525C142.047 133.877 141.855 134.339 141.797 134.911H145.428C145.403 134.306 145.243 133.836 144.948 133.501C144.661 133.165 144.25 132.998 143.717 132.998Z" fill="#FFF5EB"/>
<path d="M136.616 140.652C136.1 140.652 135.611 140.583 135.152 140.444C134.701 140.313 134.299 140.112 133.946 139.843L134.278 139.119C134.647 139.38 135.012 139.569 135.373 139.683C135.743 139.798 136.141 139.855 136.567 139.855C137.749 139.855 138.34 139.25 138.34 138.039V136.984C138.167 137.361 137.896 137.659 137.527 137.88C137.166 138.092 136.752 138.199 136.284 138.199C135.734 138.199 135.259 138.072 134.856 137.819C134.454 137.565 134.143 137.217 133.921 136.776C133.708 136.326 133.601 135.807 133.601 135.218C133.601 134.629 133.708 134.114 133.921 133.672C134.143 133.223 134.454 132.875 134.856 132.63C135.259 132.384 135.734 132.262 136.284 132.262C136.752 132.262 137.166 132.368 137.527 132.581C137.896 132.793 138.167 133.084 138.34 133.452V132.372H139.312V137.904C139.312 138.82 139.082 139.507 138.623 139.965C138.171 140.423 137.503 140.652 136.616 140.652ZM136.469 137.389C137.043 137.389 137.499 137.193 137.835 136.8C138.171 136.408 138.34 135.88 138.34 135.218C138.34 134.556 138.171 134.032 137.835 133.648C137.499 133.255 137.043 133.059 136.469 133.059C135.903 133.059 135.451 133.255 135.115 133.648C134.779 134.032 134.61 134.556 134.61 135.218C134.61 135.88 134.779 136.408 135.115 136.8C135.451 137.193 135.903 137.389 136.469 137.389Z" fill="#FFF5EB"/>
<path d="M124.362 138.334L128.19 129.686H129.052L132.879 138.334H131.833L130.873 136.126H126.356L125.408 138.334H124.362ZM128.608 130.863L126.725 135.279H130.516L128.633 130.863H128.608Z" fill="#FFF5EB"/>
<path d="M195.742 151.585V149.007C195.742 148.653 195.673 148.321 195.535 148.009C195.403 147.692 195.219 147.416 194.985 147.183C194.751 146.949 194.474 146.767 194.156 146.635C193.843 146.497 193.51 146.428 193.155 146.428C192.8 146.428 192.464 146.497 192.145 146.635C191.833 146.767 191.559 146.949 191.325 147.183C191.091 147.416 190.904 147.692 190.766 148.009C190.634 148.321 190.568 148.653 190.568 149.007V151.585H195.742ZM198.329 156.733H195.742V154.155H190.568V156.733H187.99V149.007C187.99 148.294 188.125 147.626 188.395 147.003C188.666 146.374 189.032 145.826 189.495 145.359C189.964 144.892 190.511 144.523 191.136 144.254C191.767 143.984 192.44 143.85 193.155 143.85C193.87 143.85 194.54 143.984 195.165 144.254C195.796 144.523 196.346 144.892 196.815 145.359C197.284 145.826 197.653 146.374 197.924 147.003C198.194 147.626 198.329 148.294 198.329 149.007V156.733Z" fill="#FFF5EB"/>
<path d="M185.727 156.733H183.14V143.85H185.727V156.733Z" fill="#FFF5EB"/>
<path d="M181.535 156.733H171.529L177.046 146.428H171.529V143.85H181.535L176.037 154.155H181.535V156.733Z" fill="#FFF5EB"/>
<path d="M170.06 151.585C170.06 152.298 169.925 152.969 169.655 153.598C169.384 154.221 169.015 154.766 168.546 155.233C168.077 155.694 167.527 156.059 166.896 156.329C166.271 156.598 165.601 156.733 164.886 156.733C164.171 156.733 163.498 156.598 162.867 156.329C162.242 156.059 161.695 155.694 161.226 155.233C160.763 154.766 160.397 154.221 160.126 153.598C159.856 152.969 159.721 152.298 159.721 151.585V143.85H162.299V151.585C162.299 151.939 162.365 152.271 162.497 152.582C162.635 152.894 162.822 153.166 163.056 153.4C163.29 153.634 163.564 153.819 163.876 153.957C164.195 154.089 164.531 154.155 164.886 154.155C165.241 154.155 165.574 154.089 165.887 153.957C166.205 153.819 166.482 153.634 166.716 153.4C166.95 153.166 167.134 152.894 167.266 152.582C167.404 152.271 167.473 151.939 167.473 151.585V143.85H170.06V151.585Z" fill="#FFF5EB"/>
<path d="M158.964 156.733H149.913V143.85H152.5V154.155H158.964V156.733Z" fill="#FFF5EB"/>
<path d="M144.279 156.733H141.701V152.699C141.13 152.555 140.604 152.325 140.123 152.007C139.648 151.69 139.24 151.313 138.897 150.875C138.555 150.432 138.287 149.944 138.095 149.411C137.909 148.872 137.815 148.306 137.815 147.713V143.85H140.403V147.713C140.403 148.066 140.469 148.402 140.601 148.719C140.739 149.031 140.925 149.303 141.16 149.537C141.394 149.77 141.668 149.956 141.98 150.094C142.299 150.226 142.635 150.291 142.99 150.291C143.344 150.291 143.678 150.226 143.99 150.094C144.309 149.956 144.585 149.77 144.82 149.537C145.054 149.303 145.237 149.031 145.37 148.719C145.508 148.402 145.577 148.066 145.577 147.713V143.85H148.155V147.713C148.155 148.306 148.059 148.872 147.867 149.411C147.68 149.944 147.416 150.432 147.073 150.875C146.731 151.313 146.322 151.69 145.847 152.007C145.373 152.325 144.85 152.555 144.279 152.699V156.733Z" fill="#FFF5EB"/>
<path d="M136.743 150.291C136.743 150.884 136.665 151.456 136.508 152.007C136.358 152.552 136.142 153.065 135.859 153.544C135.577 154.017 135.24 154.451 134.85 154.846C134.459 155.236 134.023 155.571 133.543 155.853C133.062 156.134 132.545 156.353 131.992 156.509C131.445 156.658 130.874 156.733 130.279 156.733H126.385V143.85H130.279C130.874 143.85 131.445 143.927 131.992 144.083C132.545 144.233 133.062 144.449 133.543 144.73C134.023 145.012 134.459 145.35 134.85 145.745C135.24 146.135 135.577 146.569 135.859 147.048C136.142 147.521 136.358 148.033 136.508 148.584C136.665 149.129 136.743 149.698 136.743 150.291ZM134.156 150.291C134.156 149.758 134.054 149.258 133.849 148.791C133.651 148.324 133.374 147.917 133.02 147.569C132.671 147.216 132.26 146.937 131.785 146.734C131.316 146.53 130.814 146.428 130.279 146.428H128.99V154.155H130.279C130.814 154.155 131.316 154.056 131.785 153.858C132.26 153.655 132.671 153.379 133.02 153.032C133.374 152.678 133.651 152.268 133.849 151.801C134.054 151.328 134.156 150.824 134.156 150.291Z" fill="#FFF5EB"/>
<path d="M123.978 156.733H121.211L116.226 148.252V156.733H113.639V143.85H116.406L121.391 152.34V143.85H123.978V156.733Z" fill="#FFF5EB"/>
<path d="M108.807 151.585V149.007C108.807 148.653 108.738 148.321 108.6 148.009C108.468 147.692 108.284 147.416 108.05 147.183C107.816 146.949 107.539 146.767 107.221 146.635C106.908 146.497 106.575 146.428 106.22 146.428C105.865 146.428 105.529 146.497 105.21 146.635C104.898 146.767 104.624 146.949 104.39 147.183C104.156 147.416 103.969 147.692 103.831 148.009C103.699 148.321 103.633 148.653 103.633 149.007V151.585H108.807ZM111.394 156.733H108.807V154.155H103.633V156.733H101.055V149.007C101.055 148.294 101.19 147.626 101.46 147.003C101.731 146.374 102.097 145.826 102.56 145.359C103.029 144.892 103.576 144.523 104.201 144.254C104.832 143.984 105.505 143.85 106.22 143.85C106.935 143.85 107.605 143.984 108.23 144.254C108.861 144.523 109.411 144.892 109.88 145.359C110.349 145.826 110.718 146.374 110.989 147.003C111.259 147.626 111.394 148.294 111.394 149.007V156.733Z" fill="#FFF5EB"/>
<defs>
<linearGradient id="paint0_linear_132_877" x1="150" y1="31.4346" x2="150" y2="200" gradientUnits="userSpaceOnUse">
<stop stop-color="#0C0006"/>
<stop offset="1" stop-opacity="0"/>
</linearGradient>
</defs>
</svg>
