<svg width="300" height="200" viewBox="0 0 300 200" fill="none" xmlns="http://www.w3.org/2000/svg">
<rect width="300" height="200" fill="#0999FF"/>
<path d="M25.5986 87.511C27.1292 87.511 28.3701 86.2746 28.3701 84.7495C28.3701 83.2243 27.1292 81.988 25.5986 81.988C24.0679 81.988 22.827 83.2243 22.827 84.7495C22.827 86.2746 24.0679 87.511 25.5986 87.511Z" fill="white"/>
<path d="M71.4267 87.511C72.9573 87.511 74.1982 86.2746 74.1982 84.7495C74.1982 83.2243 72.9573 81.988 71.4267 81.988C69.896 81.988 68.6551 83.2243 68.6551 84.7495C68.6551 86.2746 69.896 87.511 71.4267 87.511Z" fill="white"/>
<path d="M71.4267 113.876C72.9573 113.876 74.1982 112.64 74.1982 111.115C74.1982 109.59 72.9573 108.353 71.4267 108.353C69.896 108.353 68.6551 109.59 68.6551 111.115C68.6551 112.64 69.896 113.876 71.4267 113.876Z" fill="white"/>
<path d="M25.5986 113.876C27.1292 113.876 28.3701 112.64 28.3701 111.115C28.3701 109.59 27.1292 108.353 25.5986 108.353C24.0679 108.353 22.827 109.59 22.827 111.115C22.827 112.64 24.0679 113.876 25.5986 113.876Z" fill="white"/>
<path d="M48.5126 127.052C50.0433 127.052 51.2841 125.816 51.2841 124.291C51.2841 122.766 50.0433 121.529 48.5126 121.529C46.9819 121.529 45.7411 122.766 45.7411 124.291C45.7411 125.816 46.9819 127.052 48.5126 127.052Z" fill="white"/>
<path d="M48.5126 74.3283C50.0433 74.3283 51.2841 73.092 51.2841 71.5668C51.2841 70.0417 50.0433 68.8053 48.5126 68.8053C46.9819 68.8053 45.7411 70.0417 45.7411 71.5668C45.7411 73.092 46.9819 74.3283 48.5126 74.3283Z" fill="white"/>
<path d="M48.5126 100.694C50.0433 100.694 51.2841 99.4573 51.2841 97.9321C51.2841 96.407 50.0433 95.1706 48.5126 95.1706C46.9819 95.1706 45.7411 96.407 45.7411 97.9321C45.7411 99.4573 46.9819 100.694 48.5126 100.694Z" fill="white"/>
<path d="M48.5126 87.511C50.0433 87.511 51.2841 86.2746 51.2841 84.7495C51.2841 83.2243 50.0433 81.988 48.5126 81.988C46.9819 81.988 45.7411 83.2243 45.7411 84.7495C45.7411 86.2746 46.9819 87.511 48.5126 87.511Z" fill="white"/>
<path d="M60.0438 107.285C61.5745 107.285 62.8153 106.049 62.8153 104.523C62.8153 102.998 61.5745 101.762 60.0438 101.762C58.5131 101.762 57.2723 102.998 57.2723 104.523C57.2723 106.049 58.5131 107.285 60.0438 107.285Z" fill="white"/>
<path d="M37.0556 107.285C38.5863 107.285 39.8271 106.049 39.8271 104.523C39.8271 102.998 38.5863 101.762 37.0556 101.762C35.5249 101.762 34.2841 102.998 34.2841 104.523C34.2841 106.049 35.5249 107.285 37.0556 107.285Z" fill="white"/>
<path d="M48.5125 125.567L24.4925 111.753V84.1179L48.5125 70.3037L72.5325 84.1179V111.76L48.5125 125.567ZM27.817 111.115L45.4847 121.274L36.6509 106.029L27.817 111.115ZM60.4483 106.029L51.6819 121.207L69.2687 111.088L60.4483 106.029ZM49.6184 99.8V120.3L58.5197 104.947L49.6184 99.8ZM38.5727 104.947L47.4066 120.185V99.847L38.5727 104.947ZM26.7111 88.8749V109.2L35.545 104.12L26.7111 88.8749ZM61.561 104.12L70.3274 109.153V88.9959L61.561 104.12ZM50.7715 97.912L59.6458 103.012L68.5201 87.7059L50.7715 97.912ZM28.633 87.773L37.4668 103.012L46.2939 97.9321L28.633 87.773ZM29.7389 85.8581L47.4066 96.0172V85.8581H29.7389ZM49.6184 85.8581V96.0172L67.2861 85.8581H49.6184ZM49.6184 83.6476H67.2861L49.6184 73.4817V83.6476ZM29.7389 83.6476H47.4066V73.4817L29.7389 83.6476Z" fill="white"/>
<path d="M48.4652 133.025L17.9648 115.475V80.3821L48.4652 62.8389L78.9656 80.3821V115.475L48.4652 133.025ZM20.1834 114.212L48.4652 130.479L76.7268 114.206V81.6588L48.4382 65.3921L20.1834 81.6588V114.212Z" fill="white"/>
<path d="M87.9634 93.2331V91.4037H101.268V93.2331H95.6535V109.751H93.6312V93.2331H87.9634Z" fill="white"/>
<path d="M105.535 109.751H103.54V90.7144H105.535V97.2366C106.955 96.5649 108.32 96.2291 109.633 96.2291C111.407 96.2291 112.596 96.7063 113.199 97.6608C113.82 98.6153 114.13 100.312 114.13 102.751V109.751H112.135V102.804C112.135 100.966 111.948 99.7111 111.576 99.0395C111.221 98.3501 110.458 98.0055 109.287 98.0055C108.17 98.0055 107.088 98.2087 106.041 98.6153L105.535 98.8009V109.751Z" fill="white"/>
<path d="M126.879 108.107L127.651 108.027L127.704 109.592C125.682 109.875 123.952 110.016 122.515 110.016C120.599 110.016 119.242 109.468 118.444 108.372C117.646 107.259 117.246 105.535 117.246 103.202C117.246 98.5534 119.1 96.2291 122.808 96.2291C124.599 96.2291 125.939 96.7328 126.826 97.7403C127.713 98.7302 128.156 100.294 128.156 102.433L128.05 103.944H119.269C119.269 105.411 119.535 106.499 120.067 107.206C120.599 107.913 121.522 108.266 122.834 108.266C124.165 108.266 125.513 108.213 126.879 108.107ZM126.161 102.354C126.161 100.727 125.894 99.5786 125.362 98.9069C124.848 98.2352 123.996 97.8994 122.808 97.8994C121.637 97.8994 120.75 98.2529 120.147 98.9599C119.561 99.667 119.26 100.798 119.242 102.354H126.161Z" fill="white"/>
<path d="M142.735 109.459C140.908 109.83 139.267 110.016 137.812 110.016C136.358 110.016 135.178 109.821 134.273 109.433C133.386 109.026 132.695 108.407 132.198 107.577C131.719 106.728 131.382 105.765 131.187 104.687C131.009 103.591 130.921 102.23 130.921 100.604C130.921 98.9776 131.009 97.6166 131.187 96.5207C131.382 95.4072 131.719 94.4262 132.198 93.5778C132.695 92.7294 133.386 92.1107 134.273 91.7219C135.16 91.333 136.313 91.1386 137.733 91.1386C139.152 91.1386 140.819 91.333 142.735 91.7219L142.655 93.4452C140.864 93.1271 139.267 92.968 137.866 92.968C135.914 92.968 134.619 93.5513 133.981 94.7178C133.36 95.8667 133.049 97.8376 133.049 100.63C133.049 102.027 133.103 103.149 133.209 103.997C133.333 104.846 133.564 105.615 133.901 106.304C134.238 106.976 134.726 107.462 135.364 107.762C136.021 108.045 136.97 108.187 138.212 108.187C139.471 108.187 140.952 108.027 142.655 107.709L142.735 109.459Z" fill="white"/>
<path d="M155.134 100.498V107.285C155.187 107.939 155.701 108.328 156.677 108.452L156.597 110.016C155.196 110.016 154.14 109.662 153.431 108.955C151.834 109.662 150.238 110.016 148.641 110.016C147.417 110.016 146.486 109.671 145.847 108.982C145.208 108.293 144.889 107.303 144.889 106.012C144.889 104.722 145.217 103.776 145.874 103.176C146.53 102.557 147.559 102.177 148.96 102.035L153.138 101.638V100.498C153.138 99.5963 152.943 98.9511 152.553 98.5622C152.162 98.1734 151.63 97.979 150.956 97.979C149.537 97.979 148.064 98.0673 146.539 98.2441L145.714 98.3236L145.634 96.8124C147.585 96.4235 149.315 96.2291 150.823 96.2291C152.331 96.2291 153.422 96.5738 154.096 97.2631C154.788 97.9524 155.134 99.0306 155.134 100.498ZM146.938 105.906C146.938 107.533 147.612 108.346 148.96 108.346C150.167 108.346 151.355 108.142 152.526 107.736L153.138 107.524V103.149L149.2 103.52C148.401 103.591 147.825 103.821 147.47 104.21C147.115 104.598 146.938 105.164 146.938 105.906Z" fill="white"/>
<path d="M163.249 98.0055C161.315 98.0055 160.348 98.6771 160.348 100.02C160.348 100.639 160.57 101.081 161.014 101.346C161.457 101.594 162.468 101.859 164.047 102.142C165.626 102.407 166.744 102.787 167.4 103.282C168.056 103.776 168.385 104.704 168.385 106.065C168.385 107.426 167.941 108.425 167.054 109.061C166.185 109.698 164.908 110.016 163.222 110.016C162.122 110.016 160.827 109.892 159.337 109.645L158.539 109.512L158.645 107.789C160.668 108.089 162.193 108.24 163.222 108.24C164.251 108.24 165.032 108.08 165.564 107.762C166.114 107.426 166.389 106.879 166.389 106.118C166.389 105.341 166.158 104.819 165.697 104.554C165.236 104.271 164.225 104.006 162.664 103.759C161.102 103.511 159.994 103.149 159.337 102.672C158.681 102.195 158.353 101.311 158.353 100.02C158.353 98.7302 158.805 97.7757 159.71 97.157C160.632 96.5384 161.777 96.2291 163.142 96.2291C164.225 96.2291 165.582 96.3528 167.214 96.6003L167.959 96.7328L167.906 98.4297C165.936 98.1469 164.384 98.0055 163.249 98.0055Z" fill="white"/>
<path d="M180.488 108.107L181.259 108.027L181.313 109.592C179.29 109.875 177.561 110.016 176.124 110.016C174.208 110.016 172.851 109.468 172.052 108.372C171.254 107.259 170.855 105.535 170.855 103.202C170.855 98.5534 172.709 96.2291 176.416 96.2291C178.208 96.2291 179.547 96.7328 180.434 97.7403C181.321 98.7302 181.765 100.294 181.765 102.433L181.658 103.944H172.877C172.877 105.411 173.143 106.499 173.676 107.206C174.208 107.913 175.13 108.266 176.443 108.266C177.774 108.266 179.122 108.213 180.488 108.107ZM179.769 102.354C179.769 100.727 179.503 99.5786 178.971 98.9069C178.456 98.2352 177.605 97.8994 176.416 97.8994C175.246 97.8994 174.359 98.2529 173.755 98.9599C173.17 99.667 172.869 100.798 172.851 102.354H179.769Z" fill="white"/>
<path d="M195.359 109.751H185.221V91.4037H187.27V107.921H195.359V109.751Z" fill="white"/>
<path d="M197.608 109.751V96.4942H199.604V109.751H197.608ZM197.608 93.4982V91.1916H199.604V93.4982H197.608Z" fill="white"/>
<path d="M205.425 109.751H203.429V96.4942H205.398V97.4222C206.835 96.6268 208.21 96.2291 209.523 96.2291C211.296 96.2291 212.485 96.7063 213.088 97.6608C213.709 98.6153 214.019 100.312 214.019 102.751V109.751H212.05V102.804C212.05 100.966 211.864 99.7111 211.492 99.0395C211.137 98.3501 210.365 98.0055 209.177 98.0055C208.609 98.0055 208.006 98.0938 207.367 98.2706C206.746 98.4297 206.267 98.5888 205.93 98.7478L205.425 98.9865V109.751Z" fill="white"/>
<path d="M219.717 109.751H217.721V90.7144H219.717V101.956L221.792 101.85L225.598 96.4942H227.859L223.522 102.592L228.046 109.751H225.784L221.819 103.6L219.717 103.679V109.751Z" fill="white"/>
<path d="M230.321 109.751V106.728H232.503V109.751H230.321Z" fill="white"/>
<path d="M241.173 96.2291C241.758 96.2291 242.752 96.3351 244.153 96.5472L244.792 96.6268L244.712 98.2441C243.293 98.085 242.246 98.0055 241.572 98.0055C240.064 98.0055 239.035 98.3678 238.485 99.0925C237.953 99.7995 237.687 101.125 237.687 103.069C237.687 104.996 237.935 106.339 238.432 107.099C238.947 107.86 240.002 108.24 241.599 108.24L244.739 108.001L244.818 109.645C243.169 109.892 241.936 110.016 241.12 110.016C239.044 110.016 237.607 109.486 236.809 108.425C236.028 107.365 235.638 105.579 235.638 103.069C235.638 100.542 236.064 98.7743 236.915 97.7668C237.767 96.7417 239.186 96.2291 241.173 96.2291Z" fill="white"/>
<path d="M247.045 103.096C247.045 100.674 247.48 98.9246 248.349 97.8464C249.218 96.7682 250.682 96.2291 252.74 96.2291C254.815 96.2291 256.279 96.7682 257.13 97.8464C258 98.9246 258.434 100.674 258.434 103.096C258.434 105.518 258.026 107.276 257.21 108.372C256.394 109.468 254.904 110.016 252.74 110.016C250.576 110.016 249.085 109.468 248.269 108.372C247.453 107.276 247.045 105.518 247.045 103.096ZM249.094 103.069C249.094 104.996 249.325 106.348 249.786 107.126C250.265 107.904 251.25 108.293 252.74 108.293C254.248 108.293 255.232 107.913 255.693 107.152C256.155 106.375 256.385 105.014 256.385 103.069C256.385 101.125 256.128 99.7907 255.614 99.066C255.099 98.3236 254.141 97.9524 252.74 97.9524C251.356 97.9524 250.398 98.3236 249.866 99.066C249.351 99.7907 249.094 101.125 249.094 103.069Z" fill="white"/>
<path d="M263.685 109.751H261.689V96.4942H263.658V97.4222C264.989 96.6268 266.284 96.2291 267.543 96.2291C269.193 96.2291 270.346 96.6798 271.002 97.5813C271.588 97.2277 272.342 96.9184 273.264 96.6533C274.204 96.3705 275.029 96.2291 275.739 96.2291C277.513 96.2291 278.701 96.7063 279.304 97.6608C279.925 98.5976 280.236 100.294 280.236 102.751V109.751H278.24V102.804C278.24 100.966 278.063 99.7111 277.708 99.0395C277.353 98.3501 276.599 98.0055 275.446 98.0055C274.861 98.0055 274.258 98.0938 273.637 98.2706C273.016 98.4297 272.537 98.5888 272.2 98.7478L271.694 98.9865C271.925 99.5697 272.04 100.86 272.04 102.857V109.751H270.044V102.91C270.044 101.001 269.867 99.7111 269.512 99.0395C269.175 98.3501 268.421 98.0055 267.25 98.0055C266.683 98.0055 266.097 98.0938 265.494 98.2706C264.909 98.4297 264.456 98.5888 264.137 98.7478L263.685 98.9865V109.751Z" fill="white"/>
</svg>
