<svg width="300" height="200" viewBox="0 0 300 200" fill="none" xmlns="http://www.w3.org/2000/svg">
<rect width="300" height="200" fill="white"/>
<g clip-path="url(#clip0_256_845)">
<path fill-rule="evenodd" clip-rule="evenodd" d="M233.965 112.426C234.546 112.426 235.242 112.485 236.053 112.605L236.46 112.665L236.376 113.441L235.377 113.328C234.783 113.268 234.332 113.237 234.024 113.237C232.83 113.237 232.234 113.687 232.234 114.587C232.234 115.087 232.371 115.433 232.646 115.619C232.893 115.788 233.369 115.956 234.073 116.124L234.316 116.18C235.157 116.368 235.751 116.611 236.101 116.907C236.452 117.206 236.627 117.698 236.627 118.383C236.627 120.078 235.748 120.926 233.988 120.926C233.48 120.926 232.858 120.873 232.125 120.77L231.374 120.662L231.47 119.898L232.088 119.976C232.872 120.068 233.489 120.114 233.941 120.114C235.118 120.114 235.708 119.562 235.708 118.454C235.708 118.01 235.578 117.688 235.32 117.493C235.06 117.299 234.578 117.134 233.868 116.999C232.938 116.799 232.277 116.543 231.887 116.228C231.497 115.914 231.303 115.386 231.303 114.646C231.303 113.166 232.191 112.426 233.965 112.426ZM198.82 112.557C199.696 112.557 200.354 112.76 200.796 113.166C201.238 113.572 201.459 114.205 201.459 115.063C201.459 116.337 200.954 117.138 199.942 117.463L201.53 120.818H200.516L199.023 117.654H196.684V120.818H195.765V112.557H198.82ZM208.144 112.557V113.37H204.037V116.222H207.427V117.022H204.037V120.005H208.144V120.818H203.118V112.557H208.144ZM213.265 112.557L215.533 120.818H214.626L214.029 118.694H210.496L209.899 120.818H208.991L211.259 112.557H213.265ZM217.754 112.557V119.995H221.383V120.818H216.834V112.557H217.754ZM230.205 112.557V113.37H226.098V116.222H229.487V117.022H226.098V120.005H230.205V120.818H225.179V112.557H230.205ZM243.323 112.557V113.381H240.806V120.818H239.897V113.381H237.354V112.557H243.323ZM247.478 112.557L249.745 120.818H248.839L248.241 118.694H244.708L244.111 120.818H243.204L245.472 112.557H247.478ZM255.596 112.557V113.381H253.077V120.818H252.17V113.381H249.627V112.557H255.596ZM261.791 112.557V113.37H257.684V116.222H261.075V117.022H257.684V120.005H261.791V120.818H256.766V112.557H261.791ZM212.573 113.346H211.952L210.699 117.869H213.826L212.573 113.346ZM246.785 113.346H246.165L244.911 117.869H248.039L246.785 113.346ZM198.82 113.37H196.684V116.843H198.832C199.955 116.843 200.516 116.264 200.516 115.105C200.516 113.948 199.95 113.37 198.82 113.37Z" fill="#58585B"/>
<path fill-rule="evenodd" clip-rule="evenodd" d="M135.519 79.0001V120.926H134.708V79.0001H135.519ZM85.73 85.3529C87.3899 85.3529 88.8554 85.7815 90.1248 86.6354C91.3955 87.4902 92.3526 88.6954 93.0002 90.2513C93.6471 91.8081 93.9701 93.5144 93.9701 95.37C93.9701 97.3596 93.6137 99.1525 92.8994 100.745C92.1852 102.339 91.1475 103.559 89.786 104.407C88.4256 105.256 86.9931 105.681 85.4919 105.681C84.3939 105.681 83.407 105.449 82.534 104.984C81.6614 104.52 80.9439 103.934 80.3824 103.226V120.926H77.0863V85.793H80.0895V88.3204C80.7979 87.3319 81.5979 86.5898 82.4891 86.0962C83.38 85.5997 84.4602 85.3529 85.73 85.3529ZM190.128 85.3529C191.788 85.3529 193.253 85.7815 194.523 86.6354C195.793 87.4902 196.75 88.6954 197.398 90.2513C198.045 91.8081 198.368 93.5144 198.368 95.37C198.368 97.3596 198.011 99.1525 197.297 100.745C196.583 102.339 195.545 103.559 194.184 104.407C192.823 105.256 191.392 105.681 189.89 105.681C188.792 105.681 187.805 105.449 186.932 104.984C186.06 104.52 185.342 103.934 184.78 103.226V120.926H181.484V85.793H184.488V88.3204C185.195 87.3319 185.996 86.5898 186.887 86.0962C187.778 85.5997 188.858 85.3529 190.128 85.3529ZM254.53 85.3531C256.055 85.3531 257.395 85.5734 258.549 86.0131C259.703 86.4515 260.554 87.0472 261.104 87.798C261.653 88.5484 262.031 89.5539 262.239 90.8095L259.015 91.25C258.87 90.248 258.446 89.4674 257.743 88.9063C257.041 88.3448 256.049 88.0635 254.767 88.0635C253.254 88.0635 252.173 88.3138 251.526 88.8142C250.879 89.3146 250.555 89.9015 250.555 90.5726C250.555 91 250.69 91.3853 250.959 91.725C251.226 92.0805 251.648 92.373 252.222 92.6055C252.551 92.7273 253.522 93.0083 255.134 93.448C257.465 94.0694 259.093 94.5813 260.014 94.9762C260.936 95.375 261.659 95.95 262.184 96.7075C262.709 97.4638 262.972 98.4035 262.972 99.5265C262.972 100.626 262.651 101.661 262.009 102.631C261.369 103.602 260.444 104.352 259.236 104.884C258.027 105.416 256.659 105.681 255.134 105.681C252.606 105.681 250.68 105.155 249.356 104.106C248.032 103.056 247.186 101.5 246.82 99.4357L250.079 98.9234C250.263 100.23 250.772 101.231 251.608 101.925C252.444 102.622 253.614 102.97 255.116 102.97C256.629 102.97 257.752 102.662 258.485 102.046C259.217 101.429 259.584 100.706 259.584 99.8754C259.584 99.1309 259.26 98.5456 258.613 98.1174C258.161 97.8242 257.038 97.4527 255.244 97C252.827 96.3896 251.15 95.8619 250.217 95.4166C249.282 94.9706 248.575 94.3547 248.092 93.5662C247.609 92.7789 247.37 91.9091 247.37 90.9567C247.37 90.0896 247.568 89.2869 247.964 88.5484C248.361 87.8099 248.901 87.1964 249.585 86.7083C250.098 86.3297 250.796 86.0095 251.682 85.7472C252.566 85.4849 253.515 85.3531 254.53 85.3531ZM47.0837 85.3531C49.6833 85.3531 51.8075 86.2388 53.4556 88.0079C55.104 89.7797 55.9282 92.2698 55.9282 95.4809C55.9282 95.6757 55.9214 95.9698 55.9099 96.3587H41.406C41.5282 98.4971 42.1325 100.132 43.2187 101.267C44.3052 102.403 45.6611 102.97 47.2845 102.97C48.4937 102.97 49.5254 102.652 50.3798 102.018C51.2337 101.383 51.9115 100.369 52.4115 98.9789L55.819 99.3987C55.281 101.389 54.2861 102.933 52.8329 104.033C51.3802 105.132 49.5254 105.68 47.2659 105.68C44.4214 105.68 42.1667 104.806 40.4996 103.053C38.8333 101.3 38 98.8436 38 95.6813C38 92.4094 38.8421 89.8702 40.5278 88.0634C42.2119 86.2563 44.3968 85.3531 47.0837 85.3531ZM106.168 85.3532C107.827 85.3532 109.176 85.5492 110.215 85.9401C111.251 86.3294 112.015 86.8215 112.503 87.4135C112.991 88.006 113.333 88.7532 113.529 89.6568C113.638 90.2179 113.694 91.2326 113.694 92.6957V97.0921C113.694 100.156 113.763 102.094 113.904 102.906C114.044 103.719 114.322 104.496 114.738 105.241H111.295C110.953 104.558 110.732 103.758 110.635 102.842C109.415 103.88 108.24 104.613 107.11 105.039C105.98 105.466 104.769 105.681 103.475 105.681C101.339 105.681 99.6955 105.159 98.5491 104.115C97.4007 103.072 96.8277 101.738 96.8277 100.114C96.8277 99.1612 97.0435 98.2905 97.4777 97.504C97.911 96.7163 98.4792 96.0846 99.1808 95.608C99.882 95.1322 100.673 94.7719 101.553 94.5286C102.199 94.3572 103.176 94.1921 104.482 94.0338C107.144 93.7159 109.103 93.3373 110.361 92.8988C110.373 92.4461 110.378 92.1604 110.378 92.0373C110.378 90.6953 110.068 89.7488 109.445 89.1996C108.603 88.4556 107.351 88.0822 105.691 88.0822C104.14 88.0822 102.996 88.3536 102.257 88.8973C101.518 89.4393 100.972 90.4008 100.618 91.7806L97.3947 91.3417C97.688 89.9623 98.1697 88.8485 98.8423 87.9992C99.513 87.15 100.484 86.4973 101.754 86.0409C103.023 85.5822 104.494 85.3532 106.168 85.3532ZM151.684 85.3531C154.284 85.3531 156.408 86.2388 158.057 88.0079C159.705 89.7797 160.529 92.2698 160.529 95.4809C160.529 95.6757 160.522 95.9698 160.511 96.3587H146.007C146.129 98.4971 146.733 100.132 147.819 101.267C148.906 102.403 150.261 102.97 151.886 102.97C153.094 102.97 154.126 102.652 154.98 102.018C155.834 101.383 156.513 100.369 157.013 98.9789L160.419 99.3987C159.882 101.389 158.887 102.933 157.434 104.033C155.981 105.132 154.126 105.68 151.867 105.68C149.022 105.68 146.767 104.806 145.1 103.053C143.434 101.3 142.601 98.8436 142.601 95.6813C142.601 92.4094 143.444 89.8702 145.128 88.0634C146.813 86.2563 148.998 85.3531 151.684 85.3531ZM210.327 85.3531C212.927 85.3531 215.051 86.2388 216.699 88.0079C218.348 89.7797 219.172 92.2698 219.172 95.4809C219.172 95.6757 219.165 95.9698 219.154 96.3587H204.65C204.771 98.4971 205.376 100.132 206.462 101.267C207.55 102.403 208.904 102.97 210.528 102.97C211.737 102.97 212.768 102.652 213.623 102.018C214.477 101.383 215.155 100.369 215.656 98.9789L219.062 99.3987C218.525 101.389 217.529 102.933 216.077 104.033C214.624 105.132 212.768 105.68 210.51 105.68C207.665 105.68 205.41 104.806 203.743 103.053C202.077 101.3 201.243 98.8436 201.243 95.6813C201.243 92.4094 202.086 89.8702 203.771 88.0634C205.456 86.2563 207.64 85.3531 210.327 85.3531ZM241.398 79V85.7929H244.712V88.3567H241.398V99.7294C241.398 100.669 241.455 101.274 241.572 101.542C241.687 101.81 241.877 102.023 242.139 102.183C242.402 102.342 242.777 102.421 243.266 102.421C243.631 102.421 244.114 102.379 244.712 102.294L245.188 105.204C244.26 105.4 243.43 105.498 242.698 105.498C241.501 105.498 240.573 105.308 239.915 104.929C239.255 104.551 238.792 104.054 238.523 103.436C238.254 102.821 238.12 101.525 238.12 99.5452V88.3567H235.702V85.7929H238.12V80.9762L241.398 79ZM122.685 79V85.7929H126V88.3567H122.685V99.7294C122.685 100.669 122.743 101.274 122.859 101.542C122.975 101.81 123.164 102.023 123.427 102.183C123.689 102.342 124.064 102.421 124.553 102.421C124.919 102.421 125.402 102.379 126 102.294L126.476 105.204C125.548 105.4 124.717 105.498 123.985 105.498C122.788 105.498 121.861 105.308 121.202 104.929C120.543 104.551 120.078 104.054 119.81 103.436C119.542 102.821 119.407 101.525 119.407 99.5452V88.3567H116.989V85.7929H119.407V80.9762L122.685 79ZM229.532 85.3531C230.642 85.3531 231.771 85.7075 232.919 86.4158L231.784 89.4741C230.978 88.9979 230.172 88.7598 229.366 88.7598C228.646 88.7598 227.999 88.9765 227.425 89.4098C226.851 89.844 226.442 90.444 226.199 91.2134C225.832 92.3848 225.649 93.667 225.649 95.0587V105.24H222.353V85.7928H225.319V88.7412C226.076 87.3614 226.775 86.4515 227.417 86.013C228.057 85.5733 228.761 85.3531 229.532 85.3531ZM110.361 95.481C109.163 95.9695 107.369 96.383 104.977 96.725C103.622 96.9215 102.663 97.1409 102.101 97.3838C101.54 97.6298 101.107 97.9858 100.801 98.4572C100.496 98.9266 100.344 99.4481 100.344 100.023C100.344 100.9 100.676 101.634 101.341 102.219C102.007 102.805 102.98 103.098 104.262 103.098C105.532 103.098 106.663 102.821 107.65 102.265C108.64 101.71 109.366 100.95 109.83 99.9854C110.183 99.2413 110.361 98.1417 110.361 96.6889V95.481ZM85.4189 87.9346C84.0149 87.9346 82.7729 88.5914 81.6915 89.9033C80.6114 91.2168 80.0713 93.1243 80.0713 95.6259C80.0713 98.1295 80.5772 99.9795 81.5907 101.175C82.605 102.373 83.8316 102.97 85.2725 102.97C86.7371 102.97 87.9915 102.351 89.036 101.111C90.0792 99.8719 90.601 97.9521 90.601 95.3525C90.601 92.8731 90.0915 91.018 89.0725 89.785C88.0526 88.5521 86.8344 87.9346 85.4189 87.9346ZM189.817 87.9346C188.413 87.9346 187.171 88.5914 186.091 89.9033C185.009 91.2168 184.47 93.1243 184.47 95.6259C184.47 98.1295 184.975 99.9795 185.989 101.175C187.003 102.373 188.23 102.97 189.67 102.97C191.136 102.97 192.39 102.351 193.433 101.111C194.477 99.8719 194.999 97.9521 194.999 95.3525C194.999 92.8731 194.489 91.018 193.47 89.785C192.45 88.5521 191.233 87.9346 189.817 87.9346ZM47.1198 88.0634C45.606 88.0634 44.3333 88.5698 43.302 89.5837C42.2698 90.5979 41.6992 91.9523 41.5897 93.6495H52.4488C52.3024 92.013 51.8873 90.786 51.2032 89.9682C50.1532 88.6979 48.7921 88.0634 47.1198 88.0634ZM151.72 88.0634C150.207 88.0634 148.934 88.5698 147.902 89.5837C146.871 90.5979 146.3 91.9523 146.19 93.6495H157.049C156.903 92.013 156.488 90.786 155.804 89.9682C154.754 88.6979 153.393 88.0634 151.72 88.0634ZM210.363 88.0634C208.849 88.0634 207.577 88.5698 206.544 89.5837C205.513 90.5979 204.942 91.9523 204.833 93.6495H215.692C215.546 92.013 215.131 90.786 214.448 89.9682C213.396 88.6979 212.036 88.0634 210.363 88.0634Z" fill="#58585B"/>
<path fill-rule="evenodd" clip-rule="evenodd" d="M61.1945 85.7927L64.1786 90.3519C64.7405 91.2189 65.1921 91.9451 65.5338 92.532C66.0714 91.7249 66.5651 91.0118 67.0179 90.3896L70.2957 85.7927H74.233L67.5123 94.9491L74.7453 105.24H70.6988L66.706 99.1971L65.6441 97.5681L60.5349 105.24H56.5425L63.648 95.132L57.0734 85.7927H61.1945ZM165.592 85.7927L168.576 90.3519C169.138 91.2189 169.59 91.9451 169.932 92.532C170.469 91.7249 170.963 91.0118 171.415 90.3896L174.693 85.7927H178.63L171.91 94.9491L179.143 105.24H175.096L171.104 99.1971L170.042 97.5681L164.933 105.24H160.941L168.046 95.132L161.472 85.7927H165.592Z" fill="#AA2F21"/>
</g>
<defs>
<clipPath id="clip0_256_845">
<rect width="225" height="42" fill="white" transform="translate(38 79)"/>
</clipPath>
</defs>
</svg>
