<svg width="300" height="200" viewBox="0 0 300 200" fill="none" xmlns="http://www.w3.org/2000/svg">
<rect width="300" height="200" fill="#DBC0B6"/>
<g clip-path="url(#clip0_132_854)">
<path d="M215.908 76.0186H58.0923V123.964H215.908V76.0186Z" fill="#DBC0B6"/>
<path d="M116.884 101.509H109.515V88.8911H107.5V102.035H116.884V101.509Z" fill="#FEEEE9"/>
<path d="M125.452 97.2354H130.318L131.309 99.6098C131.309 99.6098 131.604 100.322 132.316 102.001L132.334 102.035H134.524L128.823 88.925L128.806 88.8911H128.354L122.793 102.018H123.592L125.452 97.2354ZM125.608 96.7266L127.833 91.4012L130.109 96.7266H125.608Z" fill="#FEEEE9"/>
<path d="M150.651 101.509H143.265V88.8911H141.249V102.035H150.651V101.509Z" fill="#FEEEE9"/>
<path d="M159.097 88.8911H157.081V102.018H159.097V88.8911Z" fill="#FEEEE9"/>
<path d="M176.875 101.509H168.499L177.032 89.4508V89.4338V88.8911H166.969V89.4169H174.547L166.048 101.577V101.594V102.035H176.875V101.509Z" fill="#FEEEE9"/>
<path d="M185.79 101.441C186.642 101.831 187.615 102.018 188.797 102.018C189.805 102.018 190.674 101.865 191.438 101.56C192.203 101.255 192.811 100.831 193.211 100.322C193.698 99.7453 193.976 99.2365 194.062 98.7447C194.202 97.9476 194.271 97.1335 194.271 96.2855V88.891H193.715V96.2177C193.715 97.1674 193.611 97.8798 193.524 98.4055C193.454 98.8125 193.263 99.2535 192.898 99.7623C192.603 100.169 192.099 100.542 191.421 100.831C190.778 101.136 190.031 101.272 189.231 101.272C188.206 101.272 187.389 101.051 186.781 100.61C186.225 100.22 185.895 99.7453 185.738 99.1009C185.616 98.5751 185.634 97.7441 185.634 96.5908V88.874H183.653V96.0481L183.566 97.371C183.496 98.3377 183.67 99.2026 184.052 99.881C184.4 100.526 184.973 101.034 185.79 101.441Z" fill="#FEEEE9"/>
<path d="M136.07 107.75H135.861L134.245 111.397H134.471L134.923 110.379H136.991L137.425 111.397H137.651L136.105 107.767L136.07 107.75ZM134.992 110.193L135.966 107.971L136.904 110.193H134.992Z" fill="#FEEEE9"/>
<path d="M139.841 107.937H141.093V111.397H141.284V107.937H142.535V107.75H139.841V107.937Z" fill="#FEEEE9"/>
<path d="M145.733 109.599H147.627V109.413H145.733V107.937H147.749V107.75H145.542V111.346H145.576V111.397H147.835V111.21H145.733V109.599Z" fill="#FEEEE9"/>
<path d="M151.224 107.75H151.033V111.397H153.049V111.21H151.224V107.75Z" fill="#FEEEE9"/>
<path d="M156.247 107.75H156.038V111.397H156.247V107.75Z" fill="#FEEEE9"/>
<path d="M159.914 109.599H161.808V109.413H159.914V107.937H161.93V107.75H159.705V111.346H159.74V111.397H161.999V111.21H159.914V109.599Z" fill="#FEEEE9"/>
<path d="M166.709 109.548C166.848 109.514 166.952 109.463 167.074 109.396C167.178 109.328 167.265 109.226 167.334 109.107C167.404 108.989 167.439 108.836 167.439 108.666C167.439 108.48 167.404 108.327 167.334 108.208C167.265 108.09 167.161 107.988 167.056 107.92C166.952 107.852 166.813 107.801 166.674 107.784C166.535 107.767 166.396 107.75 166.257 107.75H165.197V111.397H165.405V109.599H166.187L167.265 111.363V111.397H167.508L166.396 109.599C166.518 109.582 166.604 109.565 166.709 109.548ZM166.987 109.209C166.813 109.345 166.57 109.413 166.239 109.413H165.388V107.92H166.187C166.326 107.92 166.448 107.937 166.587 107.954C166.709 107.971 166.83 108.022 166.917 108.073C167.004 108.124 167.091 108.208 167.143 108.293C167.195 108.395 167.23 108.514 167.23 108.649C167.247 108.904 167.161 109.09 166.987 109.209Z" fill="#FEEEE9"/>
<path d="M198.998 105.614C192.916 105.63 131.847 105.393 130.214 105.342C129.779 105.325 129.362 105.308 128.893 105.274C126.651 105.139 124.722 105.02 122.932 106.665C122.55 107.021 122.098 107.53 121.576 108.124L121.559 108.158C119.3 110.718 115.511 114.992 109.342 115.094C106.926 115.128 104.493 116.332 103.033 117.045L103.016 117.061C102.86 117.146 102.703 117.214 102.564 117.282C104.198 115.501 106.196 114.144 107.951 112.94L107.969 112.923C109.637 111.787 111.097 110.803 111.966 109.667C113.165 108.09 114.868 107.259 116.085 106.818C117.718 106.784 119.699 106.648 119.908 106.326C119.96 106.258 119.96 106.173 119.891 106.105C119.804 106.004 119.543 105.953 119.074 105.97C118.187 105.987 117.041 106.207 116.015 106.563C115.807 106.563 115.581 106.563 115.355 106.563C112.522 106.563 109.88 106.258 108.143 105.732C107.152 105.444 105.466 105.19 104.545 105.054C104.007 104.952 103.103 104.681 102.929 104.342C102.807 104.087 102.738 103.799 102.668 103.527V103.51C102.564 103.12 102.46 102.696 102.182 102.34C101.539 101.492 100.6 100.814 99.6966 100.152L99.575 100.068C99.4707 99.9828 99.3664 99.915 99.2621 99.8302C99.0015 99.6267 98.7234 99.3044 98.4453 98.9652C98.1499 98.6091 97.8197 98.219 97.4721 97.9307C97.4895 97.9307 97.5069 97.9307 97.5243 97.9307L97.5764 97.9137C97.6633 97.8967 97.7676 97.8798 97.8719 97.8628C99.1057 97.6423 99.8009 97.3371 100.722 96.6417C101.261 96.2347 101.504 95.8107 101.782 95.3358L101.799 95.3188C101.938 95.0644 102.095 94.81 102.303 94.5556C102.599 94.1825 102.981 94.3521 103.416 94.5387C103.746 94.6913 104.059 94.827 104.337 94.7083C104.493 94.6404 104.615 94.5217 104.719 94.3012C104.858 93.996 104.702 93.5889 104.563 93.2158C104.493 93.0462 104.424 92.8766 104.424 92.7579C104.319 91.7742 103.798 91.0619 102.929 90.7057C101.365 90.0613 99.0536 90.6718 98.0978 91.4011C97.1072 92.1473 96.5163 92.8766 95.9776 93.979C95.6821 94.5896 95.4562 95.2171 95.2998 95.8276C95.4736 94.386 96.3425 92.9614 97.1072 92.1134C98.4453 90.6209 100.322 89.9934 102.512 90.3326C103.676 90.5022 104.232 91.1297 104.476 92.5374L104.545 92.8936L104.736 92.5883C105.188 91.842 105.067 90.0952 104.51 89.4507C104.128 89.0267 103.589 88.6875 103.051 88.3653H103.033C102.755 88.1957 102.512 88.043 102.286 87.8734C101.66 87.3985 100.566 86.8897 99.714 86.8219C99.4186 86.8049 99.1231 86.8728 98.8451 86.9237H98.8277C98.567 86.9915 98.3063 87.0424 98.063 87.0254C97.9761 87.0254 97.9066 87.0085 97.8197 87.0085H97.7502C97.3505 86.9576 97.0203 86.9237 96.4989 87.1102C95.9081 87.3137 94.7785 87.9243 93.7705 89.8917C93.5446 90.3496 93.336 90.8244 93.1796 91.2824C93.058 90.7736 92.9537 90.2139 93.0058 89.7729C93.1101 89.0267 92.9363 88.5688 92.7799 88.1957C92.6061 87.7717 92.5018 87.4833 92.8494 86.9237C93.1275 86.4997 93.1449 85.923 93.1449 85.3464C93.1622 84.9054 93.1796 84.4475 93.3186 84.0914C93.3708 83.9726 93.4229 83.8709 93.4924 83.7861C93.6315 84.1083 93.7357 84.4475 93.7879 84.8037C93.9443 85.6856 93.5098 86.2961 93.0406 86.9576L92.6583 87.5003L93.058 87.3477C93.84 87.0593 94.2397 86.771 94.6742 86.1605C95.0739 85.6008 95.2998 85.1089 95.1782 84.3627C95.0739 83.7182 94.6916 83.2773 94.1876 83.2094C93.9617 83.1925 93.7531 83.2434 93.5619 83.3621C93.1622 82.6498 92.6235 82.2258 92.0326 82.1749C90.7118 82.0392 89.7908 82.2597 89.2173 82.8533C88.2962 83.7861 88.4526 85.3803 88.7133 87.0933C88.8871 88.2296 89.617 89.2472 90.4164 90.2648C90.7118 90.6379 90.903 90.9262 91.0768 91.2484C90.9899 91.1636 90.903 91.0619 90.8161 90.9771L90.764 90.9262C90.5554 90.7057 90.3295 90.4852 90.1036 90.2648C89.6518 89.8238 89.1652 89.3489 88.8176 88.8741C88.609 88.6027 88.4352 88.3144 88.2788 88.043V88.0261C87.9834 87.5342 87.688 87.0424 87.2187 86.6014C86.6279 86.0417 85.8806 85.5838 84.8726 85.1768C83.8647 84.7697 82.7698 84.8376 81.8661 85.3803C81.8487 85.3973 81.814 85.4142 81.7792 85.4312L81.7445 85.4481C81.2231 85.7365 79.8328 86.4997 80.1978 87.619C80.1804 87.6021 80.163 87.5851 80.163 87.5681C79.9371 87.3307 79.6938 87.3477 79.5548 87.3985C78.7206 87.6699 78.0254 89.9765 77.9733 90.4174C77.7474 92.2491 77.9907 93.6228 78.738 94.6574C80.1804 96.6247 82.0573 97.8628 83.3954 98.5582C82.3006 98.4055 81.31 98.2529 80.8234 98.1172C79.7807 97.8119 78.738 97.9815 77.7821 98.6091C76.2876 99.5927 75.2101 101.611 75.0189 103.748L74.9668 104.24L75.2622 103.833C75.5055 103.477 78.3556 101.306 80.667 102.086L80.7018 102.103C80.7365 102.12 80.7713 102.12 80.806 102.137C81.3448 102.323 81.953 102.527 82.4396 102.018L82.5613 101.882C82.9262 101.509 83.1695 101.221 83.7083 101.017C83.8125 100.966 83.9342 100.933 84.0558 100.899C83.6561 101.051 83.2564 101.272 82.9088 101.662L82.7351 101.848C82.318 102.323 82.0573 102.629 81.3795 102.747C80.6844 102.866 79.9197 103.053 79.5026 103.731C79.1203 104.358 79.3636 104.969 79.5895 105.529C79.659 105.698 79.7112 105.851 79.7633 106.004C79.9892 106.767 80.0935 107.394 79.8676 108.141C79.8328 108.276 79.7807 108.429 79.7285 108.582L79.7112 108.632C79.5374 109.124 79.3636 109.633 79.3636 110.159C79.381 110.888 79.6764 111.516 80.2151 111.973C80.6844 112.381 81.3448 112.635 82.092 112.72L82.2484 112.737L82.2311 112.584C82.2137 112.313 82.0573 112.058 81.8835 111.804C82.0051 111.957 82.1268 112.092 82.2311 112.228C82.318 112.313 82.3875 112.397 82.4396 112.482C82.9262 113.093 83.7083 113.737 84.5772 113.449C85.3766 113.178 85.8806 112.211 85.8806 111.414C85.898 110.718 85.9327 110.057 85.9849 109.463C86.0022 109.192 86.0022 108.904 86.0022 108.582V108.514C85.9849 107.513 85.9675 106.394 86.7669 105.902C87.3056 105.58 87.8618 105.495 88.609 105.647C89.3911 105.817 89.8777 105.58 90.5207 105.054C90.625 104.969 90.7466 104.867 90.8683 104.732C90.7987 104.901 90.7292 105.071 90.6597 105.223C90.4685 105.647 90.5381 105.953 90.5902 106.292V106.309C90.625 106.478 90.6597 106.665 90.6597 106.886C90.6597 107.683 91.5113 108.344 91.8762 108.598C92.1717 108.802 92.4671 108.938 92.7278 109.056C93.0232 109.192 93.3013 109.311 93.5619 109.514C94.2223 110.006 94.7785 110.057 95.5952 109.667L95.6821 109.616C96.3078 109.311 96.5511 109.209 97.1941 109.548C97.6807 109.803 98.4975 110.244 99.1057 109.582C99.6271 109.022 99.5576 108.191 99.2969 107.581C99.1231 107.14 98.8277 106.902 98.5149 106.631C98.3585 106.495 98.2194 106.377 98.0804 106.224C97.6633 105.766 97.2115 105.325 96.7075 104.85C96.3078 104.46 95.8907 104.053 95.5084 103.646L95.4562 103.595C94.9522 103.053 94.1876 102.255 94.1876 101.526C94.2397 101.543 94.2745 101.543 94.3266 101.543C94.4656 102.73 95.3172 103.697 96.6901 104.223C98.1325 104.782 99.4186 105.139 100.618 105.308C100.687 105.325 100.757 105.342 100.844 105.359L100.93 105.376C101.539 105.512 102.46 105.698 102.668 105.037C102.877 104.426 102.13 103.934 101.643 103.612C101.556 103.561 101.469 103.494 101.4 103.443C100.496 102.781 99.575 102.154 98.3063 101.34C97.785 101.017 97.1246 100.712 96.4642 100.542C96.3947 100.526 96.3252 100.509 96.2383 100.475C95.9254 100.39 95.5431 100.271 95.1782 100.271C95.1955 100.186 95.1955 100.118 95.2129 100.034C95.2651 99.6775 95.2998 99.3214 95.4215 99.1348C95.9081 98.3886 96.3425 98.1851 97.1246 98.0324C97.5243 98.2699 97.8892 98.7108 98.2542 99.1348L98.2889 99.1687C98.5844 99.5249 98.8624 99.8471 99.1405 100.051L99.575 100.373C100.461 101.017 101.382 101.679 102.008 102.493C102.251 102.798 102.338 103.171 102.442 103.578C102.512 103.85 102.599 104.155 102.738 104.443C102.999 104.986 104.285 105.257 104.545 105.308H104.563C105.293 105.41 107.1 105.664 108.108 105.97C109.863 106.495 112.522 106.801 115.372 106.818C113.878 107.445 112.644 108.378 111.775 109.497C110.923 110.6 109.498 111.566 107.83 112.703C105.901 114.009 103.711 115.501 101.991 117.536L101.66 117.926L102.147 117.74C102.39 117.638 102.738 117.485 103.155 117.282L103.19 117.265C104.632 116.553 107.03 115.382 109.377 115.349C115.685 115.247 119.508 110.905 121.802 108.31C122.306 107.75 122.775 107.208 123.158 106.869C124.861 105.308 126.738 105.427 128.91 105.546L129.119 105.563C129.484 105.58 129.849 105.597 130.231 105.614C132.282 105.681 195.036 105.902 198.998 105.885H199.033V105.614H198.998ZM117.075 106.512C117.562 106.394 118.048 106.292 118.535 106.241C118.813 106.207 119.039 106.207 119.213 106.207C119.369 106.207 119.491 106.207 119.578 106.224C119.213 106.343 118.327 106.462 117.075 106.512ZM94.1354 83.4638C94.5178 83.5147 94.8132 83.8709 94.9001 84.3797C95.0044 85.0411 94.8132 85.4821 94.4483 85.9909C94.1354 86.4318 93.8574 86.6862 93.3882 86.9067C93.7705 86.347 94.205 85.6686 94.0312 84.7528C93.9617 84.3458 93.84 83.9387 93.6662 83.5826C93.8226 83.4808 93.979 83.4469 94.1354 83.4638ZM94.2919 101.255C94.2745 101.255 94.2397 101.255 94.205 101.238C94.2223 101.17 94.2571 101.102 94.2919 101.034C94.2919 101.068 94.2919 101.102 94.2919 101.136V101.153C94.2919 101.187 94.2919 101.221 94.2919 101.255ZM95.8733 97.6932C95.6648 97.778 95.491 97.9137 95.3172 98.0833L95.3346 97.2183C95.3519 96.3703 95.6648 95.2171 96.1861 94.1316C96.7075 93.0632 97.281 92.3678 98.2194 91.6555C98.8624 91.1636 100.131 90.7396 101.33 90.7396C101.834 90.7396 102.338 90.8244 102.773 90.994C103.555 91.3163 104.007 91.9438 104.111 92.8257C104.128 92.9784 104.198 93.148 104.267 93.3345L104.285 93.3684C104.406 93.6737 104.528 94.0299 104.441 94.2334C104.371 94.3691 104.302 94.4539 104.215 94.4878C104.041 94.5556 103.781 94.4369 103.503 94.3182C103.068 94.1316 102.495 93.8772 102.06 94.42C101.834 94.7083 101.66 94.9966 101.521 95.234C101.261 95.675 101.035 96.082 100.548 96.4551C99.6619 97.1335 99.0015 97.4049 97.8197 97.6254C97.7676 97.6423 97.7154 97.6423 97.6633 97.6593C97.6112 97.6593 97.5764 97.6763 97.5417 97.6763L97.4895 97.6932C97.3853 97.7102 97.281 97.7271 97.1767 97.7441C96.7422 97.5067 96.3078 97.4897 95.8733 97.6932ZM93.9617 101.136C93.7531 101.034 93.4924 100.848 93.197 100.593C93.1101 100.509 93.0232 100.441 92.9363 100.356L92.7625 100.203C91.5982 99.1687 90.2774 97.9985 88.9914 97.2523C87.9834 96.6756 87.3752 96.4212 86.176 96.6587L86.0718 96.6756C85.5851 96.7774 85.1854 96.8452 84.9943 96.4382C84.8552 96.1329 84.9595 95.5054 85.1854 95.234C85.3071 95.0984 85.4114 95.0475 85.5156 95.0475C85.6894 95.0475 85.8806 95.251 86.0718 95.4376L86.1239 95.4884C86.4193 95.8107 86.5584 95.8446 86.8017 95.9294H86.819C86.9059 95.9633 87.0276 95.9972 87.184 96.0651C88.0182 96.4043 88.8176 96.7943 89.5649 97.2183C90.7119 97.8628 92.8668 99.6097 93.6836 100.627L93.7184 100.661L93.9269 100.492L93.8921 100.458C93.058 99.4062 90.8509 97.6423 89.7039 96.9809C88.9566 96.5569 88.1398 96.1499 87.2883 95.8107C87.1145 95.7428 86.9754 95.692 86.8885 95.658C86.6452 95.5732 86.5757 95.5563 86.3151 95.2849L86.2629 95.234C86.0544 95.0136 85.8111 94.7592 85.5156 94.7592C85.3245 94.7592 85.1681 94.8609 84.9943 95.0475C84.6815 95.3867 84.5598 96.1329 84.751 96.5399C85.0464 97.1335 85.6373 97.0148 86.1413 96.9131L86.2455 96.8961C87.3578 96.6756 87.9139 96.9131 88.8697 97.4558C90.1384 98.1851 91.4418 99.3553 92.6061 100.373L92.7278 100.475C92.832 100.576 92.9363 100.661 93.0406 100.763C93.3882 101.068 93.6836 101.272 93.9269 101.374C93.8574 102.238 94.7089 103.137 95.2824 103.731L95.3346 103.782C95.6995 104.172 96.0992 104.562 96.5511 104.986L96.6032 105.037C97.0377 105.461 97.5069 105.919 97.924 106.36C98.0804 106.529 98.2368 106.665 98.3932 106.784C98.6713 107.021 98.9493 107.242 99.1057 107.632C99.3317 108.158 99.4012 108.887 98.9667 109.345C98.5322 109.803 97.9587 109.565 97.3853 109.26C96.6206 108.853 96.273 109.022 95.63 109.328L95.4736 109.379C94.7611 109.718 94.2919 109.684 93.7184 109.26C93.4229 109.039 93.1275 108.904 92.832 108.768H92.8147C92.554 108.649 92.2759 108.531 92.0152 108.344C91.6851 108.124 90.9204 107.513 90.9204 106.835C90.9204 106.58 90.8856 106.377 90.8509 106.19C90.7987 105.885 90.7466 105.614 90.903 105.274C91.0073 105.02 91.1289 104.732 91.2506 104.426L91.2853 104.342C91.3201 104.24 91.3549 104.155 91.3896 104.053C91.6329 103.731 91.8241 103.443 91.9284 103.307C92.1195 103.019 92.3107 102.713 92.4497 102.476C92.6756 102.086 92.6583 102.018 92.6235 101.95C92.5887 101.899 92.5192 101.865 92.4497 101.882C91.9284 102.035 91.5286 102.985 91.1463 103.934C90.8509 104.325 90.5728 104.613 90.3469 104.816C89.756 105.291 89.3563 105.495 88.6612 105.359C87.8444 105.19 87.2187 105.274 86.6279 105.647C85.6894 106.224 85.7068 107.428 85.7242 108.497C85.7242 108.853 85.7416 109.141 85.7068 109.413C85.6547 110.04 85.6199 110.701 85.6025 111.38C85.5851 112.075 85.1681 112.94 84.4729 113.161C83.8994 113.347 83.2564 113.042 82.6308 112.279C82.5786 112.211 82.5091 112.143 82.457 112.075L82.4049 112.024C81.7792 111.329 80.9277 110.379 82.0747 107.937C82.5439 106.936 83.3781 105.919 84.4208 105.088C85.5851 104.155 87.2709 103.544 88.0703 103.341L88.609 103.205L88.0529 103.086C87.8965 103.053 87.7227 103.036 87.5663 103.036C86.7669 103.036 85.9849 103.409 85.3418 103.748C84.5424 104.189 83.9168 104.749 83.239 105.359L83.1348 105.461C82.1094 106.377 81.5359 107.36 81.1362 108.853C80.9451 109.565 80.7886 110.294 80.9798 110.939C81.0667 111.21 81.2579 111.482 81.449 111.736C81.6054 111.94 81.7966 112.194 81.8661 112.431C81.2579 112.347 80.7191 112.109 80.3194 111.787C79.8328 111.38 79.5721 110.82 79.5548 110.159C79.5374 109.684 79.7112 109.209 79.885 108.717C79.9545 108.531 80.0066 108.361 80.0587 108.208C80.302 107.411 80.1978 106.733 79.9545 105.936C79.9023 105.783 79.8502 105.614 79.7807 105.461V105.444C79.5721 104.918 79.3636 104.392 79.6764 103.884C80.024 103.307 80.7018 103.137 81.3795 103.019C82.1442 102.883 82.457 102.527 82.8915 102.035C82.9436 101.967 82.9957 101.916 83.0652 101.848C83.5866 101.272 84.2644 101.085 84.8552 100.983C85.4809 100.865 86.176 100.831 86.9928 100.848C87.2014 100.848 87.462 100.899 87.7227 100.95C88.1746 101.034 88.6438 101.119 89.0087 101.034L89.2868 100.966L89.0609 100.797C88.4526 100.356 87.2709 100.22 85.5504 100.356C84.8379 100.424 84.108 100.576 83.5518 100.797C82.9784 101.034 82.6829 101.34 82.318 101.73L82.1963 101.848C81.8314 102.238 81.3448 102.069 80.8408 101.882H80.8234C80.7886 101.865 80.7365 101.848 80.7018 101.831C79.4157 101.39 78.0081 101.831 77.0522 102.272C76.2876 102.629 75.6272 103.086 75.2796 103.392C75.5403 101.458 76.5309 99.7284 77.8864 98.8295C78.7553 98.2529 79.7285 98.0833 80.6844 98.3716C81.2752 98.5412 82.5439 98.7278 83.7604 98.8974L83.9168 98.9143C83.9863 98.9313 84.0558 98.9313 84.1253 98.9483C85.2897 99.4571 86.3672 99.7284 86.7495 99.6097C86.9407 99.5419 86.9407 99.4062 86.9407 99.3723C86.9407 99.1348 86.5236 99.0331 84.1949 98.6939C83.9863 98.6091 83.7604 98.4903 83.5345 98.3716C82.2137 97.6932 80.3368 96.4721 78.9117 94.5217C78.1992 93.555 77.9733 92.2321 78.1818 90.4683C78.234 89.9934 78.9291 87.8904 79.5895 87.6699C79.7112 87.636 79.8154 87.6699 79.9197 87.7717C79.9892 87.8565 80.0587 88.0939 80.1109 88.2635V88.2805C80.163 88.4501 80.1978 88.6027 80.2499 88.7045C80.3542 88.8741 80.5453 89.2302 80.7539 89.5185C81.0667 89.9765 81.5185 90.4513 82.0747 90.9262L82.4918 91.2824C82.8393 91.5876 83.2217 91.9099 83.5345 92.1982C83.9342 92.5544 84.5251 92.9275 84.9421 93.1649L86.0196 93.7585L85.0985 92.9444C84.9943 92.8596 84.7857 92.6392 84.5424 92.3848L84.4208 92.266C83.8473 91.6724 83.1348 90.9432 82.7872 90.6888C82.2484 90.2987 81.7966 89.8238 81.3969 89.2641C81.3621 89.2133 81.3274 89.1624 81.2926 89.1115L81.2752 89.0945C80.9451 88.6197 80.6149 88.1278 80.4063 87.5681C80.0761 86.6353 81.3448 85.94 81.8314 85.6686C81.8835 85.6347 81.9356 85.6177 81.953 85.6008C82.7872 85.1089 83.7952 85.0241 84.7162 85.4142C85.6894 85.8213 86.4193 86.2622 86.9754 86.788C87.4099 87.212 87.688 87.6699 88.0008 88.1787C88.1919 88.484 88.3484 88.7553 88.5569 89.0437C88.9392 89.5525 89.4432 90.0443 89.8777 90.4683C90.1036 90.6888 90.3295 90.9092 90.5381 91.1297L90.5902 91.1806C90.9204 91.5368 91.1985 91.8251 91.407 92.0795C91.4244 92.1304 91.4418 92.1643 91.4591 92.2152C91.7024 92.9105 91.8762 93.3684 92.1369 93.4532C92.189 93.4702 92.2759 93.4702 92.3628 93.4024C92.3976 93.3684 92.4497 93.3176 92.4497 93.2328C92.4671 93.0123 92.2064 92.6052 91.6503 91.9438C91.6155 91.8251 91.5808 91.7403 91.546 91.6894C91.268 91.0619 91.0247 90.6888 90.6076 90.1291C89.8255 89.1285 89.113 88.1448 88.9566 87.0763C88.7133 85.4481 88.5743 83.9048 89.3911 83.0568C89.9124 82.531 90.764 82.3275 91.9805 82.4632C92.5018 82.5141 92.9711 82.9042 93.3186 83.5656C93.197 83.7013 93.0927 83.8539 93.0232 84.0405C92.8494 84.4306 92.8494 84.9224 92.832 85.3973C92.8147 85.923 92.7973 86.4657 92.5714 86.8219C92.1543 87.5003 92.3107 87.8904 92.4845 88.3313C92.6235 88.6875 92.7973 89.0945 92.693 89.7729C92.6061 90.3496 92.7973 91.0958 92.9885 91.8081C92.8668 92.3 92.8147 92.724 92.832 93.0123C92.8668 93.3684 93.0232 93.4532 93.1449 93.4702C93.2839 93.4872 93.3708 93.4363 93.4229 93.3854C93.6141 93.1819 93.4924 92.707 93.2839 91.9099V91.8929C93.2839 91.876 93.2665 91.842 93.2665 91.8081C93.3708 91.4011 93.5967 90.7566 93.9617 90.0273C94.3787 89.2133 95.2651 87.8056 96.5337 87.3816C96.9855 87.2289 97.281 87.2629 97.6633 87.2968H97.7328C97.8197 87.3137 97.9066 87.3137 97.9935 87.3137C98.2889 87.3307 98.5844 87.2629 98.8624 87.212C99.1057 87.1611 99.4012 87.0933 99.6619 87.1102C100.461 87.1781 101.487 87.6699 102.095 88.1109C102.321 88.2805 102.616 88.467 102.877 88.6197C103.398 88.9419 103.92 89.2641 104.267 89.6542C104.667 90.0952 104.823 91.2993 104.632 92.0795C104.337 90.8753 103.694 90.2817 102.547 90.1121C100.253 89.7729 98.2889 90.4174 96.8986 91.9947C96.273 92.69 95.7343 93.572 95.3867 94.4369C94.987 95.4715 94.8827 96.4551 95.0913 97.2692L95.3172 98.1342C95.0391 98.4055 94.8132 98.7787 94.6568 99.2366C94.5004 99.6436 94.4135 100.102 94.3614 100.593C94.1354 100.746 94.0138 100.933 93.9617 101.136ZM86.5931 99.3214C86.3846 99.3383 85.9327 99.2705 85.2897 99.067C85.9675 99.1687 86.4019 99.2535 86.5931 99.3214ZM92.2064 93.148C92.1543 93.114 92.0848 92.9953 91.9631 92.69C92.1369 92.9444 92.189 93.0801 92.2064 93.148ZM93.2491 93.1649C93.2491 93.1649 93.2144 93.1649 93.197 93.1649C93.1622 93.1649 93.1275 93.0632 93.1101 92.9444C93.0927 92.7918 93.1101 92.5883 93.1449 92.3508C93.2318 92.6561 93.3186 93.0801 93.2491 93.1649ZM87.7922 100.627H87.7575C87.4968 100.576 87.2361 100.526 87.0102 100.526C86.8885 100.526 86.7669 100.526 86.6626 100.526C87.4273 100.526 88.0529 100.593 88.4874 100.746C88.2615 100.729 88.0182 100.678 87.7922 100.627ZM81.4143 108.887C81.7966 107.445 82.3527 106.512 83.3433 105.63L83.4476 105.529C84.108 104.935 84.7336 104.375 85.4983 103.951C85.9849 103.68 86.5931 103.392 87.2361 103.29C86.5062 103.544 85.2376 104.053 84.247 104.85C83.1695 105.715 82.3006 106.767 81.814 107.801C81.6228 108.208 81.4838 108.565 81.3969 108.904C81.4143 108.904 81.4143 108.904 81.4143 108.887ZM95.1434 100.509C95.4736 100.509 95.8385 100.61 96.1514 100.695L96.2556 100.729C96.3078 100.746 96.3599 100.763 96.412 100.78C97.0377 100.95 97.6807 101.221 98.1847 101.543C99.4359 102.34 100.357 102.951 101.261 103.629C101.313 103.663 101.382 103.714 101.452 103.765L101.504 103.799C101.921 104.087 102.564 104.511 102.425 104.935C102.286 105.342 101.678 105.24 101 105.105C100.878 105.071 100.774 105.054 100.67 105.037C99.5054 104.85 98.2368 104.511 96.8118 103.968C95.5257 103.477 94.7263 102.578 94.622 101.492C94.9349 101.357 95.0565 100.933 95.1434 100.509ZM94.5699 101.153C94.5699 101 94.5873 100.848 94.5873 100.695C94.5873 100.695 94.6047 100.678 94.622 100.678L94.6394 100.661C94.6916 100.61 94.7785 100.576 94.848 100.559C94.7958 100.797 94.7263 101.068 94.5699 101.187V101.153ZM94.9349 99.9828L94.9175 100.051C94.9001 100.118 94.9001 100.186 94.8827 100.254C94.7785 100.271 94.6916 100.305 94.622 100.339C94.7263 99.5758 95.0565 98.3547 95.995 97.9137C96.1514 97.8459 96.3252 97.795 96.4816 97.795C96.5511 97.795 96.6206 97.795 96.7075 97.8119C96.0992 97.9646 95.6474 98.2359 95.1955 98.9483C95.0391 99.2027 94.987 99.5927 94.9349 99.9828ZM81.0841 89.2302L81.1884 89.3659C81.5881 89.9595 82.0747 90.4344 82.6308 90.8584C82.9262 91.0619 83.5171 91.6724 84.0384 92.1982C83.9168 92.1134 83.8125 92.0286 83.7256 91.9438C83.3259 91.5876 82.8915 91.2145 82.4744 90.8584L82.2658 90.6718C81.7097 90.1969 81.2926 89.739 80.9972 89.2981C80.806 89.0267 80.6322 88.7214 80.5106 88.5009C80.4584 88.4161 80.4237 88.2635 80.3889 88.1278C80.3716 88.0939 80.3716 88.043 80.3542 88.0091C80.5627 88.467 80.8408 88.8741 81.0841 89.2302ZM81.675 111.533C81.5012 111.295 81.31 111.058 81.2579 110.82C81.1188 110.311 81.2057 109.718 81.3448 109.124C81.0667 110.294 81.3448 111.041 81.7271 111.583C81.7097 111.583 81.6923 111.566 81.675 111.533Z" fill="#FEEEE9"/>
</g>
<defs>
<clipPath id="clip0_132_854">
<rect width="158" height="48" fill="white" transform="translate(58 76)"/>
</clipPath>
</defs>
</svg>
