<svg width="300" height="200" viewBox="0 0 300 200" fill="none" xmlns="http://www.w3.org/2000/svg">
<rect width="300" height="200" fill="white"/>
<g clip-path="url(#clip0_135_810)">
<path d="M220 30H80V170H220V30Z" fill="white"/>
<path d="M120.584 115.359C119.796 115.84 118.708 115.496 118.148 114.588L92.8354 73.441C92.2885 72.5304 92.4581 71.4011 93.2456 70.9199C94.0331 70.4386 95.1213 70.7804 95.6791 71.6882L120.994 112.852C121.563 113.746 121.369 114.875 120.584 115.359Z" fill="#EE1620"/>
<path d="M119.807 117.18C119.195 117.17 118.596 117.004 118.067 116.698C117.537 116.391 117.094 115.955 116.78 115.43L91.4654 74.2804C90.4428 72.6206 90.8639 70.4987 92.4033 69.5499C93.9428 68.6011 96.0236 69.1862 97.0517 70.8487L122.367 111.996C123.389 113.658 122.968 115.78 121.431 116.726C120.943 117.025 120.38 117.182 119.807 117.18ZM94.1041 72.3362C94.1099 72.4286 94.1391 72.518 94.1889 72.596L119.504 113.743C119.55 113.823 119.616 113.89 119.695 113.937C119.694 113.84 119.664 113.745 119.61 113.664L94.3119 72.5304C94.2651 72.4507 94.1981 72.3847 94.1178 72.339L94.1041 72.3362Z" fill="#EE1620"/>
<path d="M133.649 71.9344C133.813 71.9344 133.976 71.9668 134.128 72.0297C134.28 72.0926 134.418 72.1849 134.534 72.3012C134.65 72.4175 134.743 72.5555 134.806 72.7075C134.869 72.8594 134.901 73.0223 134.901 73.1867V112.436C134.901 112.768 134.769 113.087 134.534 113.322C134.3 113.558 133.981 113.69 133.649 113.691H94.3994C94.0668 113.69 93.748 113.558 93.5127 113.323C93.2775 113.087 93.1451 112.769 93.1443 112.436V73.1867C93.1451 72.8543 93.2776 72.5358 93.5129 72.301C93.7482 72.0662 94.067 71.9344 94.3994 71.9344H133.649ZM133.649 68.5957H94.3994C93.1818 68.5964 92.0142 69.0803 91.1529 69.941C90.2916 70.8018 89.8071 71.9691 89.8057 73.1867V112.436C89.8064 113.654 90.2906 114.822 91.1519 115.683C92.0133 116.545 93.1813 117.029 94.3994 117.03H133.649C134.867 117.029 136.035 116.545 136.896 115.683C137.757 114.822 138.242 113.654 138.242 112.436V73.1867C138.241 71.9696 137.757 70.8026 136.896 69.942C136.035 69.0813 134.869 68.5972 133.651 68.5957H133.649Z" fill="black"/>
<path d="M133.648 118.637H94.3992C92.7559 118.635 91.1807 117.98 90.0192 116.817C88.8577 115.655 88.2046 114.079 88.2031 112.436V73.1866C88.2053 71.5428 88.8595 69.9669 90.0221 68.8048C91.1847 67.6427 92.7608 66.9892 94.4047 66.9878H133.648C135.292 66.99 136.867 67.6437 138.029 68.8058C139.191 69.9678 139.845 71.5433 139.847 73.1866V112.436C139.846 114.08 139.192 115.656 138.03 116.818C136.868 117.981 135.292 118.635 133.648 118.637ZM94.3992 70.1952C93.6073 70.1959 92.8479 70.5107 92.2877 71.0704C91.7274 71.6301 91.412 72.3892 91.4105 73.1812V112.436C91.4113 113.228 91.7264 113.988 92.2867 114.548C92.847 115.109 93.6068 115.424 94.3992 115.425H133.648C134.44 115.423 135.199 115.108 135.759 114.547C136.319 113.987 136.634 113.228 136.634 112.436V73.1866C136.635 72.7941 136.558 72.4054 136.408 72.0427C136.258 71.68 136.038 71.3503 135.761 71.0725C135.484 70.7947 135.154 70.5743 134.792 70.4238C134.429 70.2732 134.041 70.1956 133.648 70.1952H94.3992ZM133.648 115.296H94.3992C93.6409 115.295 92.9138 114.994 92.3776 114.457C91.8414 113.921 91.5398 113.194 91.5391 112.436V73.1866C91.5405 72.4288 91.8424 71.7024 92.3785 71.1668C92.9147 70.6311 93.6414 70.3299 94.3992 70.3292H133.648C134.406 70.3299 135.132 70.6312 135.668 71.1669C136.204 71.7026 136.505 72.429 136.506 73.1866V112.436C136.505 113.194 136.204 113.92 135.668 114.457C135.133 114.993 134.406 115.295 133.648 115.296ZM94.7656 112.083H133.32V73.5421H94.7656V112.083Z" fill="black"/>
<path d="M148.967 40.5027C149.825 40.839 150.211 41.9163 149.822 42.9089L122.017 114.276C121.628 115.271 120.619 115.805 119.761 115.471C118.902 115.137 118.517 114.06 118.902 113.065L146.719 41.7003C147.096 40.705 148.108 40.1691 148.967 40.5027Z" fill="#EE1620"/>
<path d="M120.291 117.18C119.911 117.181 119.533 117.111 119.178 116.975C118.754 116.805 118.371 116.547 118.055 116.217C117.74 115.886 117.499 115.492 117.349 115.061C117.059 114.224 117.079 113.311 117.406 112.488L145.212 41.1206C145.528 40.2948 146.129 39.6097 146.907 39.1901C147.309 38.9724 147.753 38.8437 148.209 38.8131C148.664 38.7824 149.122 38.8504 149.549 39.0124C149.973 39.1816 150.355 39.4402 150.671 39.7705C150.986 40.1008 151.226 40.495 151.375 40.9265C151.665 41.7622 151.646 42.6741 151.321 43.4968L123.512 114.864C123.197 115.691 122.596 116.377 121.817 116.797C121.347 117.047 120.823 117.178 120.291 117.18ZM148.359 42.0558C148.289 42.1169 148.235 42.195 148.203 42.2827L120.398 113.65C120.362 113.736 120.348 113.83 120.359 113.923C120.43 113.864 120.484 113.786 120.515 113.699L148.324 42.3319C148.359 42.2445 148.371 42.1494 148.359 42.0558Z" fill="#EE1620"/>
<path d="M120.994 112.851L109.928 94.8647H106.007L118.147 114.601C118.708 115.509 119.788 115.854 120.584 115.373C121.379 114.891 121.563 113.746 120.994 112.851Z" fill="#EE1620"/>
<path d="M119.793 117.18C119.455 117.18 119.118 117.128 118.795 117.027C117.953 116.752 117.238 116.185 116.78 115.427L103.133 93.2432H110.825L122.361 111.996C122.83 112.746 123.014 113.64 122.878 114.514C122.809 114.965 122.643 115.396 122.393 115.778C122.142 116.16 121.812 116.483 121.426 116.726C120.934 117.025 120.369 117.182 119.793 117.18ZM108.88 96.4451L119.517 113.735C119.563 113.816 119.63 113.883 119.711 113.929C119.707 113.831 119.677 113.737 119.624 113.655L109.031 96.4287L108.88 96.4451Z" fill="#EE1620"/>
<path d="M157.949 106.669L157.186 103.535C157.179 103.489 157.154 103.447 157.117 103.417C157.08 103.388 157.033 103.374 156.986 103.377H150.15C150.103 103.373 150.056 103.387 150.019 103.417C149.982 103.446 149.958 103.489 149.951 103.535L149.147 106.669C149.117 106.793 149.044 106.901 148.94 106.975C148.837 107.049 148.71 107.083 148.584 107.071H144.939C144.591 107.071 144.457 106.896 144.537 106.549L150.842 84.2992C150.873 84.1764 150.947 84.0686 151.05 83.9954C151.153 83.9222 151.279 83.8883 151.406 83.8999H155.701C155.827 83.8883 155.953 83.9222 156.057 83.9954C156.16 84.0686 156.234 84.1764 156.264 84.2992L162.649 106.562L162.688 106.724C162.688 106.964 162.54 107.085 162.247 107.085H158.512C158.384 107.096 158.256 107.059 158.152 106.983C158.049 106.907 157.976 106.795 157.949 106.669ZM151.004 99.6609C151.048 99.6983 151.104 99.7195 151.162 99.721H155.983C156.042 99.7189 156.098 99.6978 156.144 99.6609C156.17 99.6396 156.188 99.6102 156.195 99.5774C156.202 99.5446 156.198 99.5104 156.182 99.4804L153.722 89.6367C153.694 89.5546 153.656 89.5164 153.601 89.5164C153.547 89.5164 153.508 89.5546 153.481 89.6367L150.952 99.4804C150.937 99.5118 150.935 99.5471 150.944 99.5802C150.954 99.6133 150.975 99.6419 151.004 99.6609Z" fill="#EE1620"/>
<path d="M165.881 105.625C164.476 104.474 163.773 102.908 163.773 100.927V100.243C163.772 100.18 163.784 100.117 163.808 100.058C163.832 99.9996 163.867 99.9462 163.912 99.9014C163.957 99.8565 164.01 99.8211 164.069 99.7972C164.128 99.7733 164.191 99.7613 164.254 99.7621H167.869C167.932 99.7613 167.995 99.7733 168.054 99.7972C168.113 99.8211 168.166 99.8565 168.211 99.9014C168.256 99.9462 168.291 99.9996 168.315 100.058C168.339 100.117 168.351 100.18 168.35 100.243V100.443C168.339 100.839 168.414 101.234 168.57 101.598C168.727 101.963 168.96 102.289 169.255 102.554C169.857 103.101 170.706 103.374 171.804 103.374C172.768 103.374 173.518 103.14 174.054 102.671C174.316 102.441 174.523 102.155 174.662 101.835C174.8 101.515 174.866 101.169 174.855 100.82C174.851 100.272 174.636 99.7474 174.254 99.3546C173.829 98.8936 173.342 98.4942 172.807 98.1679C172.247 97.8207 171.254 97.2601 169.838 96.4808C168.443 95.8136 167.365 95.2522 166.603 94.7964C165.828 94.3284 165.164 93.6977 164.656 92.948C164.1 92.1032 163.819 91.1069 163.852 90.096C163.852 88.1164 164.542 86.5441 165.922 85.3792C167.302 84.2144 169.169 83.632 171.522 83.632C173.934 83.632 175.842 84.2408 177.245 85.4585C178.649 86.6763 179.352 88.3169 179.353 90.3804V90.7031C179.353 90.8307 179.303 90.9531 179.212 91.0434C179.122 91.1336 179 91.1843 178.872 91.1843H175.257C175.13 91.1843 175.007 91.1336 174.917 91.0434C174.827 90.9531 174.776 90.8307 174.776 90.7031V90.5418C174.789 90.1521 174.719 89.764 174.57 89.4037C174.421 89.0434 174.197 88.7192 173.912 88.4527C173.338 87.9058 172.512 87.6488 171.451 87.6488C170.513 87.6488 169.778 87.8648 169.242 88.2914C168.986 88.5113 168.781 88.785 168.643 89.093C168.504 89.401 168.436 89.7357 168.441 90.0733C168.447 90.4109 168.527 90.743 168.676 91.0461C168.825 91.3492 169.038 91.6158 169.302 91.8269C170.28 92.5146 171.322 93.1062 172.414 93.5933C174.072 94.3425 175.349 94.9714 176.242 95.48C177.149 95.998 177.941 96.6948 178.571 97.5281C179.247 98.4456 179.594 99.5639 179.556 100.703C179.556 102.737 178.846 104.357 177.426 105.562C176.006 106.767 174.078 107.369 171.643 107.369C169.207 107.358 167.287 106.777 165.881 105.625ZM166.103 76.3886C166.103 76.1753 166.223 76.0687 166.464 76.0687H169.316C169.43 76.0597 169.545 76.0854 169.645 76.1425C169.745 76.1995 169.825 76.2853 169.876 76.3886L171.484 79C171.536 79.0792 171.591 79.1203 171.643 79.1203C171.694 79.1203 171.738 79.0792 171.763 79L173.371 76.3886C173.422 76.285 173.503 76.1992 173.603 76.1421C173.704 76.0851 173.819 76.0595 173.934 76.0687H176.797C176.871 76.0599 176.946 76.0721 177.014 76.104C177.082 76.1359 177.139 76.1862 177.18 76.2492C177.211 76.3178 177.222 76.3939 177.211 76.4685C177.201 76.5432 177.169 76.6132 177.119 76.6703L174.254 80.8074C174.198 80.9068 174.116 80.9891 174.017 81.0454C173.917 81.1018 173.805 81.1301 173.691 81.1273H169.474C169.361 81.1296 169.248 81.1011 169.15 81.0447C169.051 80.9884 168.969 80.9064 168.914 80.8074L166.179 76.6703C166.126 76.5864 166.099 76.4881 166.103 76.3886Z" fill="#EE1620"/>
<path d="M197.485 87.8128C197.441 87.8589 197.388 87.8954 197.329 87.9198C197.27 87.9443 197.207 87.9563 197.143 87.955H187.666C187.639 87.9508 187.611 87.9531 187.585 87.9616C187.559 87.9702 187.535 87.9848 187.516 88.0042C187.496 88.0236 187.482 88.0474 187.473 88.0735C187.465 88.0996 187.462 88.1274 187.466 88.1546V93.2159C187.462 93.2431 187.465 93.2709 187.473 93.297C187.482 93.3231 187.496 93.3469 187.516 93.3663C187.535 93.3858 187.559 93.4003 187.585 93.4089C187.611 93.4174 187.639 93.4197 187.666 93.4155H193.57C193.633 93.4155 193.696 93.4281 193.754 93.4524C193.813 93.4768 193.866 93.5125 193.911 93.5575C193.956 93.6024 193.991 93.6558 194.015 93.7145C194.039 93.7732 194.051 93.8361 194.051 93.8995V96.9511C194.052 97.0145 194.04 97.0774 194.016 97.1361C193.992 97.1948 193.956 97.2482 193.912 97.293C193.867 97.3378 193.813 97.3733 193.755 97.3972C193.696 97.4211 193.633 97.4331 193.57 97.4323H187.666C187.639 97.4281 187.611 97.4304 187.585 97.439C187.559 97.4475 187.535 97.4621 187.516 97.4815C187.496 97.501 187.482 97.5247 187.473 97.5509C187.465 97.577 187.462 97.6048 187.466 97.6319V102.855C187.462 102.882 187.465 102.91 187.473 102.936C187.482 102.962 187.496 102.986 187.516 103.005C187.535 103.024 187.559 103.039 187.585 103.048C187.611 103.056 187.639 103.058 187.666 103.054H197.143C197.207 103.053 197.27 103.065 197.329 103.089C197.387 103.113 197.441 103.148 197.485 103.194C197.531 103.238 197.567 103.291 197.591 103.35C197.616 103.409 197.628 103.472 197.627 103.535V106.587C197.628 106.651 197.616 106.714 197.592 106.773C197.567 106.831 197.531 106.885 197.485 106.929C197.441 106.975 197.388 107.011 197.329 107.036C197.27 107.06 197.207 107.072 197.143 107.071H183.288C183.161 107.07 183.039 107.018 182.949 106.928C182.859 106.837 182.808 106.715 182.807 106.587V84.3812C182.807 84.2535 182.858 84.1311 182.948 84.0409C183.038 83.9506 183.161 83.8999 183.288 83.8999H197.143C197.207 83.8995 197.27 83.9117 197.328 83.9358C197.387 83.9598 197.441 83.9952 197.486 84.0399C197.53 84.0846 197.566 84.1378 197.591 84.1964C197.615 84.2549 197.627 84.3177 197.627 84.3812V87.4737C197.628 87.537 197.616 87.5997 197.592 87.658C197.567 87.7163 197.531 87.769 197.485 87.8128Z" fill="#EE1620"/>
<path d="M111.888 158.876L104.779 131.689V131.527C104.779 131.287 104.926 131.166 105.222 131.166H109.198C109.318 131.16 109.437 131.197 109.533 131.271C109.629 131.344 109.695 131.45 109.72 131.568L114.453 151.767C114.478 151.874 114.519 151.928 114.573 151.928C114.628 151.928 114.666 151.874 114.694 151.767L119.312 131.606C119.331 131.482 119.396 131.369 119.493 131.289C119.59 131.208 119.714 131.167 119.84 131.172H123.733C124.083 131.172 124.217 131.347 124.135 131.694L117.026 158.882C116.995 159.005 116.922 159.112 116.818 159.186C116.715 159.259 116.589 159.293 116.463 159.281H112.449C112.322 159.292 112.196 159.258 112.093 159.183C111.99 159.109 111.917 159 111.888 158.876Z" fill="#034DA3"/>
<path d="M128.253 157.422C126.766 155.963 126.023 153.989 126.025 151.499V143.895C126.025 141.434 126.768 139.473 128.253 138.013C129.739 136.553 131.727 135.824 134.217 135.826C136.705 135.826 138.693 136.555 140.181 138.013C141.668 139.472 142.411 141.432 142.409 143.895V151.485C142.409 153.976 141.666 155.95 140.181 157.408C138.695 158.866 136.707 159.596 134.217 159.596C131.725 159.605 129.737 158.88 128.253 157.422ZM136.787 154.551C137.429 153.856 137.75 152.893 137.75 151.66V143.775C137.75 142.571 137.429 141.614 136.787 140.903C136.105 140.222 135.181 139.839 134.217 139.839C133.253 139.839 132.329 140.222 131.647 140.903C131.005 141.614 130.683 142.571 130.682 143.775V151.647C130.682 152.877 131.003 153.841 131.647 154.537C132.335 155.206 133.257 155.581 134.217 155.581C135.177 155.581 136.099 155.206 136.787 154.537V154.551Z" fill="#034DA3"/>
<path d="M146.122 159.136C146.077 159.092 146.042 159.038 146.018 158.98C145.994 158.921 145.982 158.858 145.983 158.794V136.586C145.982 136.523 145.994 136.46 146.018 136.402C146.042 136.344 146.077 136.291 146.122 136.247C146.166 136.201 146.22 136.164 146.278 136.14C146.337 136.115 146.401 136.103 146.464 136.105H150.158C150.222 136.103 150.285 136.115 150.344 136.14C150.403 136.164 150.456 136.201 150.5 136.247C150.545 136.291 150.581 136.344 150.605 136.402C150.629 136.46 150.641 136.523 150.64 136.586V155.059C150.636 155.087 150.639 155.115 150.648 155.141C150.657 155.167 150.671 155.191 150.691 155.21C150.711 155.23 150.734 155.245 150.76 155.254C150.787 155.263 150.815 155.265 150.842 155.262H160.278C160.342 155.261 160.405 155.273 160.463 155.297C160.522 155.321 160.575 155.356 160.62 155.401C160.665 155.446 160.7 155.499 160.724 155.558C160.748 155.617 160.76 155.68 160.76 155.743V158.789C160.76 158.852 160.748 158.915 160.724 158.974C160.7 159.033 160.665 159.086 160.62 159.131C160.575 159.176 160.522 159.211 160.463 159.235C160.405 159.259 160.342 159.271 160.278 159.27H146.464C146.401 159.272 146.338 159.261 146.28 159.238C146.221 159.215 146.167 159.181 146.122 159.136ZM152.507 140.02C152.476 139.952 152.465 139.876 152.476 139.801C152.486 139.726 152.518 139.656 152.567 139.599L154.777 136.427C154.832 136.327 154.914 136.245 155.014 136.188C155.113 136.131 155.226 136.102 155.34 136.105H158.348C158.621 136.105 158.75 136.2 158.75 136.378C158.737 136.493 158.696 136.603 158.629 136.698L155.895 139.911C155.819 139.995 155.726 140.063 155.622 140.11C155.519 140.157 155.407 140.182 155.294 140.184H152.885C152.813 140.194 152.74 140.184 152.673 140.155C152.607 140.126 152.549 140.079 152.507 140.02Z" fill="#034DA3"/>
<path d="M176.543 147.43C178.577 148.524 179.608 150.304 179.635 152.771C179.635 154.887 178.925 156.5 177.505 157.611C176.085 158.721 174.225 159.276 171.924 159.276H164.219C164.155 159.277 164.092 159.265 164.034 159.241C163.975 159.217 163.922 159.181 163.877 159.136C163.832 159.092 163.796 159.038 163.773 158.98C163.749 158.921 163.737 158.858 163.737 158.795V136.586C163.736 136.522 163.747 136.458 163.771 136.398C163.794 136.339 163.83 136.284 163.874 136.239C163.919 136.193 163.973 136.156 164.032 136.131C164.091 136.107 164.155 136.094 164.219 136.094H171.448C173.937 136.094 175.864 136.616 177.232 137.661C178.599 138.705 179.281 140.298 179.28 142.44C179.28 144.628 178.368 146.207 176.545 147.179C176.381 147.269 176.381 147.348 176.543 147.43ZM168.391 140.321V145.544C168.387 145.571 168.389 145.599 168.398 145.625C168.407 145.651 168.421 145.675 168.441 145.694C168.46 145.714 168.484 145.728 168.51 145.737C168.536 145.745 168.564 145.748 168.591 145.743H171.684C172.646 145.743 173.403 145.497 173.953 145C174.482 144.441 174.776 143.701 174.776 142.932C174.776 142.164 174.482 141.424 173.953 140.865C173.406 140.368 172.646 140.121 171.684 140.121H168.594C168.566 140.117 168.538 140.119 168.512 140.127C168.485 140.135 168.461 140.15 168.441 140.169C168.422 140.189 168.407 140.213 168.398 140.239C168.389 140.266 168.387 140.294 168.391 140.321ZM174.153 154.439C174.7 153.917 174.973 153.188 174.973 152.251C175.005 151.842 174.948 151.431 174.806 151.046C174.664 150.662 174.44 150.312 174.15 150.022C173.86 149.732 173.511 149.508 173.126 149.366C172.741 149.224 172.33 149.168 171.921 149.2H168.594C168.566 149.196 168.539 149.199 168.512 149.208C168.486 149.216 168.463 149.231 168.443 149.251C168.424 149.271 168.409 149.294 168.401 149.321C168.392 149.347 168.39 149.375 168.394 149.402V155.024C168.39 155.051 168.392 155.079 168.401 155.105C168.409 155.131 168.424 155.155 168.443 155.174C168.463 155.194 168.486 155.208 168.513 155.217C168.539 155.225 168.567 155.228 168.594 155.223H171.927C172.743 155.266 173.543 154.984 174.153 154.439Z" fill="#034DA3"/>
<path d="M187.045 159.095C186.999 159.051 186.962 158.998 186.938 158.939C186.913 158.881 186.901 158.817 186.903 158.753V150.441L186.862 150.2L180.846 136.668C180.804 136.594 180.777 136.512 180.767 136.427C180.767 136.211 180.915 136.105 181.21 136.105H185.137C185.258 136.09 185.38 136.119 185.483 136.184C185.585 136.25 185.662 136.35 185.7 136.466L189.153 145.101C189.233 145.289 189.312 145.289 189.394 145.101L192.807 136.466C192.844 136.349 192.92 136.25 193.023 136.184C193.126 136.118 193.249 136.09 193.37 136.105H197.384C197.456 136.086 197.532 136.09 197.601 136.117C197.671 136.144 197.73 136.192 197.77 136.254C197.81 136.317 197.83 136.391 197.826 136.465C197.822 136.539 197.794 136.61 197.748 136.668L191.603 150.2L191.562 150.441V158.753C191.562 158.881 191.511 159.003 191.421 159.094C191.331 159.184 191.209 159.236 191.081 159.237H187.384C187.321 159.239 187.258 159.227 187.2 159.202C187.141 159.178 187.089 159.141 187.045 159.095Z" fill="#034DA3"/>
<path d="M198.754 158.874C198.429 158.607 198.221 158.225 198.174 157.807C198.121 157.445 198.095 157.08 198.098 156.713C198.095 156.356 198.121 155.998 198.174 155.644C198.224 155.229 198.432 154.849 198.754 154.583C199.113 154.327 199.543 154.189 199.985 154.189C200.426 154.189 200.856 154.327 201.215 154.583C201.535 154.847 201.742 155.224 201.792 155.636C201.894 156.352 201.894 157.078 201.792 157.794C201.747 158.21 201.542 158.592 201.22 158.86C200.86 159.112 200.43 159.247 199.99 159.247C199.55 159.247 199.12 159.112 198.76 158.86L198.754 158.874ZM200.586 158.242C200.753 158.088 200.861 157.88 200.89 157.654C200.923 157.346 200.94 157.037 200.939 156.727C200.94 156.421 200.924 156.115 200.89 155.811C200.858 155.59 200.751 155.386 200.586 155.234C200.416 155.091 200.201 155.013 199.979 155.013C199.757 155.013 199.542 155.091 199.372 155.234C199.205 155.389 199.098 155.597 199.069 155.822C199.04 156.127 199.027 156.432 199.03 156.738C199.027 157.048 199.04 157.357 199.069 157.665C199.097 157.891 199.205 158.099 199.372 158.253C199.541 158.402 199.76 158.481 199.985 158.474C200.208 158.478 200.423 158.394 200.586 158.242Z" fill="black"/>
<path d="M202.957 159.013C202.852 158.893 202.796 158.738 202.802 158.579C202.807 158.419 202.872 158.268 202.985 158.155C203.097 158.043 203.248 157.977 203.408 157.971C203.567 157.965 203.722 158.02 203.843 158.125C203.953 158.246 204.015 158.404 204.015 158.569C204.015 158.733 203.953 158.892 203.843 159.013C203.722 159.124 203.564 159.185 203.4 159.185C203.236 159.185 203.078 159.124 202.957 159.013Z" fill="black"/>
<path d="M206.763 159.09V158.414C206.762 158.369 206.775 158.325 206.802 158.288L208.989 155.177C208.992 155.172 208.993 155.167 208.993 155.162C208.993 155.156 208.992 155.151 208.989 155.147C208.986 155.141 208.982 155.137 208.976 155.133C208.971 155.13 208.965 155.128 208.959 155.128H206.916C206.903 155.129 206.89 155.128 206.878 155.124C206.865 155.12 206.854 155.113 206.845 155.104C206.835 155.094 206.828 155.083 206.824 155.07C206.82 155.058 206.819 155.045 206.821 155.032V154.376C206.819 154.363 206.82 154.349 206.824 154.337C206.828 154.324 206.835 154.313 206.845 154.304C206.854 154.295 206.865 154.288 206.878 154.283C206.89 154.279 206.903 154.278 206.916 154.28H210.009C210.022 154.278 210.035 154.279 210.048 154.284C210.06 154.288 210.072 154.295 210.081 154.304C210.091 154.313 210.098 154.324 210.103 154.337C210.107 154.349 210.109 154.362 210.107 154.376V155.062C210.109 155.106 210.096 155.149 210.069 155.185L207.852 158.299C207.852 158.299 207.852 158.316 207.852 158.327C207.853 158.333 207.857 158.338 207.862 158.341C207.867 158.344 207.873 158.346 207.879 158.346H210.039C210.052 158.345 210.065 158.346 210.078 158.351C210.09 158.355 210.102 158.362 210.111 158.372C210.12 158.381 210.127 158.393 210.131 158.405C210.135 158.418 210.136 158.431 210.135 158.444V159.09C210.137 159.103 210.135 159.116 210.131 159.128C210.127 159.141 210.12 159.152 210.111 159.161C210.101 159.171 210.09 159.178 210.078 159.182C210.065 159.186 210.052 159.187 210.039 159.185H206.867C206.854 159.189 206.839 159.189 206.826 159.185C206.812 159.182 206.8 159.175 206.79 159.165C206.779 159.156 206.771 159.144 206.767 159.131C206.762 159.118 206.761 159.103 206.763 159.09Z" fill="black"/>
<path d="M211.111 159.013C211.006 158.893 210.951 158.738 210.956 158.579C210.961 158.419 211.027 158.268 211.139 158.155C211.252 158.043 211.403 157.977 211.562 157.971C211.721 157.965 211.877 158.02 211.997 158.125C212.108 158.246 212.169 158.404 212.169 158.569C212.169 158.733 212.108 158.892 211.997 159.013C211.876 159.124 211.718 159.185 211.554 159.185C211.39 159.185 211.232 159.124 211.111 159.013Z" fill="black"/>
</g>
<defs>
<clipPath id="clip0_135_810">
<rect width="140" height="140" fill="white" transform="translate(80 30)"/>
</clipPath>
</defs>
</svg>
